<?xml version="1.0" encoding="utf-8" standalone="no"?>
<!DOCTYPE svg PUBLIC "-//W3C//DTD SVG 1.1//EN"
  "http://www.w3.org/Graphics/SVG/1.1/DTD/svg11.dtd">
<svg xmlns:xlink="http://www.w3.org/1999/xlink" width="1152pt" height="648pt" viewBox="0 0 1152 648" xmlns="http://www.w3.org/2000/svg" version="1.1">
 <metadata>
  <rdf:RDF xmlns:dc="http://purl.org/dc/elements/1.1/" xmlns:cc="http://creativecommons.org/ns#" xmlns:rdf="http://www.w3.org/1999/02/22-rdf-syntax-ns#">
   <cc:Work>
    <dc:type rdf:resource="http://purl.org/dc/dcmitype/StillImage"/>
    <dc:date>2024-03-01T00:57:34.504850</dc:date>
    <dc:format>image/svg+xml</dc:format>
    <dc:creator>
     <cc:Agent>
      <dc:title>Matplotlib v3.8.3, https://matplotlib.org/</dc:title>
     </cc:Agent>
    </dc:creator>
   </cc:Work>
  </rdf:RDF>
 </metadata>
 <defs>
  <style type="text/css">*{stroke-linejoin: round; stroke-linecap: butt}</style>
 </defs>
 <g id="figure_1">
  <g id="patch_1">
   <path d="M 0 648 
L 1152 648 
L 1152 0 
L 0 0 
z
" style="fill: #ffffff"/>
  </g>
  <g id="axes_1">
   <g id="patch_2">
    <path d="M 144 576.72 
L 1036.8 576.72 
L 1036.8 77.76 
L 144 77.76 
z
" style="fill: #ffffff"/>
   </g>
   <g id="matplotlib.axis_1">
    <g id="xtick_1">
     <g id="line2d_1">
      <path d="M 184.547145 576.72 
L 184.547145 77.76 
" clip-path="url(#pf41b6739a5)" style="fill: none; stroke: #b0b0b0; stroke-width: 0.8; stroke-linecap: square"/>
     </g>
     <g id="line2d_2">
      <defs>
       <path id="m5b148d3551" d="M 0 0 
L 0 3.5 
" style="stroke: #000000; stroke-width: 0.8"/>
      </defs>
      <g>
       <use xlink:href="#m5b148d3551" x="184.547145" y="576.72" style="stroke: #000000; stroke-width: 0.8"/>
      </g>
     </g>
     <g id="text_1">
      <!-- 1960 -->
      <g transform="translate(171.822145 591.318438) scale(0.1 -0.1)">
       <defs>
        <path id="DejaVuSans-31" d="M 794 531 
L 1825 531 
L 1825 4091 
L 703 3866 
L 703 4441 
L 1819 4666 
L 2450 4666 
L 2450 531 
L 3481 531 
L 3481 0 
L 794 0 
L 794 531 
z
" transform="scale(0.015625)"/>
        <path id="DejaVuSans-39" d="M 703 97 
L 703 672 
Q 941 559 1184 500 
Q 1428 441 1663 441 
Q 2288 441 2617 861 
Q 2947 1281 2994 2138 
Q 2813 1869 2534 1725 
Q 2256 1581 1919 1581 
Q 1219 1581 811 2004 
Q 403 2428 403 3163 
Q 403 3881 828 4315 
Q 1253 4750 1959 4750 
Q 2769 4750 3195 4129 
Q 3622 3509 3622 2328 
Q 3622 1225 3098 567 
Q 2575 -91 1691 -91 
Q 1453 -91 1209 -44 
Q 966 3 703 97 
z
M 1959 2075 
Q 2384 2075 2632 2365 
Q 2881 2656 2881 3163 
Q 2881 3666 2632 3958 
Q 2384 4250 1959 4250 
Q 1534 4250 1286 3958 
Q 1038 3666 1038 3163 
Q 1038 2656 1286 2365 
Q 1534 2075 1959 2075 
z
" transform="scale(0.015625)"/>
        <path id="DejaVuSans-36" d="M 2113 2584 
Q 1688 2584 1439 2293 
Q 1191 2003 1191 1497 
Q 1191 994 1439 701 
Q 1688 409 2113 409 
Q 2538 409 2786 701 
Q 3034 994 3034 1497 
Q 3034 2003 2786 2293 
Q 2538 2584 2113 2584 
z
M 3366 4563 
L 3366 3988 
Q 3128 4100 2886 4159 
Q 2644 4219 2406 4219 
Q 1781 4219 1451 3797 
Q 1122 3375 1075 2522 
Q 1259 2794 1537 2939 
Q 1816 3084 2150 3084 
Q 2853 3084 3261 2657 
Q 3669 2231 3669 1497 
Q 3669 778 3244 343 
Q 2819 -91 2113 -91 
Q 1303 -91 875 529 
Q 447 1150 447 2328 
Q 447 3434 972 4092 
Q 1497 4750 2381 4750 
Q 2619 4750 2861 4703 
Q 3103 4656 3366 4563 
z
" transform="scale(0.015625)"/>
        <path id="DejaVuSans-30" d="M 2034 4250 
Q 1547 4250 1301 3770 
Q 1056 3291 1056 2328 
Q 1056 1369 1301 889 
Q 1547 409 2034 409 
Q 2525 409 2770 889 
Q 3016 1369 3016 2328 
Q 3016 3291 2770 3770 
Q 2525 4250 2034 4250 
z
M 2034 4750 
Q 2819 4750 3233 4129 
Q 3647 3509 3647 2328 
Q 3647 1150 3233 529 
Q 2819 -91 2034 -91 
Q 1250 -91 836 529 
Q 422 1150 422 2328 
Q 422 3509 836 4129 
Q 1250 4750 2034 4750 
z
" transform="scale(0.015625)"/>
       </defs>
       <use xlink:href="#DejaVuSans-31"/>
       <use xlink:href="#DejaVuSans-39" x="63.623047"/>
       <use xlink:href="#DejaVuSans-36" x="127.246094"/>
       <use xlink:href="#DejaVuSans-30" x="190.869141"/>
      </g>
     </g>
    </g>
    <g id="xtick_2">
     <g id="line2d_3">
      <path d="M 437.836774 576.72 
L 437.836774 77.76 
" clip-path="url(#pf41b6739a5)" style="fill: none; stroke: #b0b0b0; stroke-width: 0.8; stroke-linecap: square"/>
     </g>
     <g id="line2d_4">
      <g>
       <use xlink:href="#m5b148d3551" x="437.836774" y="576.72" style="stroke: #000000; stroke-width: 0.8"/>
      </g>
     </g>
     <g id="text_2">
      <!-- 1980 -->
      <g transform="translate(425.111774 591.318438) scale(0.1 -0.1)">
       <defs>
        <path id="DejaVuSans-38" d="M 2034 2216 
Q 1584 2216 1326 1975 
Q 1069 1734 1069 1313 
Q 1069 891 1326 650 
Q 1584 409 2034 409 
Q 2484 409 2743 651 
Q 3003 894 3003 1313 
Q 3003 1734 2745 1975 
Q 2488 2216 2034 2216 
z
M 1403 2484 
Q 997 2584 770 2862 
Q 544 3141 544 3541 
Q 544 4100 942 4425 
Q 1341 4750 2034 4750 
Q 2731 4750 3128 4425 
Q 3525 4100 3525 3541 
Q 3525 3141 3298 2862 
Q 3072 2584 2669 2484 
Q 3125 2378 3379 2068 
Q 3634 1759 3634 1313 
Q 3634 634 3220 271 
Q 2806 -91 2034 -91 
Q 1263 -91 848 271 
Q 434 634 434 1313 
Q 434 1759 690 2068 
Q 947 2378 1403 2484 
z
M 1172 3481 
Q 1172 3119 1398 2916 
Q 1625 2713 2034 2713 
Q 2441 2713 2670 2916 
Q 2900 3119 2900 3481 
Q 2900 3844 2670 4047 
Q 2441 4250 2034 4250 
Q 1625 4250 1398 4047 
Q 1172 3844 1172 3481 
z
" transform="scale(0.015625)"/>
       </defs>
       <use xlink:href="#DejaVuSans-31"/>
       <use xlink:href="#DejaVuSans-39" x="63.623047"/>
       <use xlink:href="#DejaVuSans-38" x="127.246094"/>
       <use xlink:href="#DejaVuSans-30" x="190.869141"/>
      </g>
     </g>
    </g>
    <g id="xtick_3">
     <g id="line2d_5">
      <path d="M 691.126403 576.72 
L 691.126403 77.76 
" clip-path="url(#pf41b6739a5)" style="fill: none; stroke: #b0b0b0; stroke-width: 0.8; stroke-linecap: square"/>
     </g>
     <g id="line2d_6">
      <g>
       <use xlink:href="#m5b148d3551" x="691.126403" y="576.72" style="stroke: #000000; stroke-width: 0.8"/>
      </g>
     </g>
     <g id="text_3">
      <!-- 2000 -->
      <g transform="translate(678.401403 591.318438) scale(0.1 -0.1)">
       <defs>
        <path id="DejaVuSans-32" d="M 1228 531 
L 3431 531 
L 3431 0 
L 469 0 
L 469 531 
Q 828 903 1448 1529 
Q 2069 2156 2228 2338 
Q 2531 2678 2651 2914 
Q 2772 3150 2772 3378 
Q 2772 3750 2511 3984 
Q 2250 4219 1831 4219 
Q 1534 4219 1204 4116 
Q 875 4013 500 3803 
L 500 4441 
Q 881 4594 1212 4672 
Q 1544 4750 1819 4750 
Q 2544 4750 2975 4387 
Q 3406 4025 3406 3419 
Q 3406 3131 3298 2873 
Q 3191 2616 2906 2266 
Q 2828 2175 2409 1742 
Q 1991 1309 1228 531 
z
" transform="scale(0.015625)"/>
       </defs>
       <use xlink:href="#DejaVuSans-32"/>
       <use xlink:href="#DejaVuSans-30" x="63.623047"/>
       <use xlink:href="#DejaVuSans-30" x="127.246094"/>
       <use xlink:href="#DejaVuSans-30" x="190.869141"/>
      </g>
     </g>
    </g>
    <g id="xtick_4">
     <g id="line2d_7">
      <path d="M 944.416032 576.72 
L 944.416032 77.76 
" clip-path="url(#pf41b6739a5)" style="fill: none; stroke: #b0b0b0; stroke-width: 0.8; stroke-linecap: square"/>
     </g>
     <g id="line2d_8">
      <g>
       <use xlink:href="#m5b148d3551" x="944.416032" y="576.72" style="stroke: #000000; stroke-width: 0.8"/>
      </g>
     </g>
     <g id="text_4">
      <!-- 2020 -->
      <g transform="translate(931.691032 591.318438) scale(0.1 -0.1)">
       <use xlink:href="#DejaVuSans-32"/>
       <use xlink:href="#DejaVuSans-30" x="63.623047"/>
       <use xlink:href="#DejaVuSans-32" x="127.246094"/>
       <use xlink:href="#DejaVuSans-30" x="190.869141"/>
      </g>
     </g>
    </g>
    <g id="text_5">
     <!-- Year -->
     <g transform="translate(571.3425 611.075312) scale(0.18 -0.18)">
      <defs>
       <path id="DejaVuSans-59" d="M -13 4666 
L 666 4666 
L 1959 2747 
L 3244 4666 
L 3922 4666 
L 2272 2222 
L 2272 0 
L 1638 0 
L 1638 2222 
L -13 4666 
z
" transform="scale(0.015625)"/>
       <path id="DejaVuSans-65" d="M 3597 1894 
L 3597 1613 
L 953 1613 
Q 991 1019 1311 708 
Q 1631 397 2203 397 
Q 2534 397 2845 478 
Q 3156 559 3463 722 
L 3463 178 
Q 3153 47 2828 -22 
Q 2503 -91 2169 -91 
Q 1331 -91 842 396 
Q 353 884 353 1716 
Q 353 2575 817 3079 
Q 1281 3584 2069 3584 
Q 2775 3584 3186 3129 
Q 3597 2675 3597 1894 
z
M 3022 2063 
Q 3016 2534 2758 2815 
Q 2500 3097 2075 3097 
Q 1594 3097 1305 2825 
Q 1016 2553 972 2059 
L 3022 2063 
z
" transform="scale(0.015625)"/>
       <path id="DejaVuSans-61" d="M 2194 1759 
Q 1497 1759 1228 1600 
Q 959 1441 959 1056 
Q 959 750 1161 570 
Q 1363 391 1709 391 
Q 2188 391 2477 730 
Q 2766 1069 2766 1631 
L 2766 1759 
L 2194 1759 
z
M 3341 1997 
L 3341 0 
L 2766 0 
L 2766 531 
Q 2569 213 2275 61 
Q 1981 -91 1556 -91 
Q 1019 -91 701 211 
Q 384 513 384 1019 
Q 384 1609 779 1909 
Q 1175 2209 1959 2209 
L 2766 2209 
L 2766 2266 
Q 2766 2663 2505 2880 
Q 2244 3097 1772 3097 
Q 1472 3097 1187 3025 
Q 903 2953 641 2809 
L 641 3341 
Q 956 3463 1253 3523 
Q 1550 3584 1831 3584 
Q 2591 3584 2966 3190 
Q 3341 2797 3341 1997 
z
" transform="scale(0.015625)"/>
       <path id="DejaVuSans-72" d="M 2631 2963 
Q 2534 3019 2420 3045 
Q 2306 3072 2169 3072 
Q 1681 3072 1420 2755 
Q 1159 2438 1159 1844 
L 1159 0 
L 581 0 
L 581 3500 
L 1159 3500 
L 1159 2956 
Q 1341 3275 1631 3429 
Q 1922 3584 2338 3584 
Q 2397 3584 2469 3576 
Q 2541 3569 2628 3553 
L 2631 2963 
z
" transform="scale(0.015625)"/>
      </defs>
      <use xlink:href="#DejaVuSans-59"/>
      <use xlink:href="#DejaVuSans-65" x="47.833984"/>
      <use xlink:href="#DejaVuSans-61" x="109.357422"/>
      <use xlink:href="#DejaVuSans-72" x="170.636719"/>
     </g>
    </g>
   </g>
   <g id="matplotlib.axis_2">
    <g id="ytick_1">
     <g id="line2d_9">
      <path d="M 144 526.771749 
L 1036.8 526.771749 
" clip-path="url(#pf41b6739a5)" style="fill: none; stroke: #b0b0b0; stroke-width: 0.8; stroke-linecap: square"/>
     </g>
     <g id="line2d_10">
      <defs>
       <path id="ma333baabc2" d="M 0 0 
L -3.5 0 
" style="stroke: #000000; stroke-width: 0.8"/>
      </defs>
      <g>
       <use xlink:href="#ma333baabc2" x="144" y="526.771749" style="stroke: #000000; stroke-width: 0.8"/>
      </g>
     </g>
     <g id="text_6">
      <!-- 320 -->
      <g transform="translate(117.9125 530.570968) scale(0.1 -0.1)">
       <defs>
        <path id="DejaVuSans-33" d="M 2597 2516 
Q 3050 2419 3304 2112 
Q 3559 1806 3559 1356 
Q 3559 666 3084 287 
Q 2609 -91 1734 -91 
Q 1441 -91 1130 -33 
Q 819 25 488 141 
L 488 750 
Q 750 597 1062 519 
Q 1375 441 1716 441 
Q 2309 441 2620 675 
Q 2931 909 2931 1356 
Q 2931 1769 2642 2001 
Q 2353 2234 1838 2234 
L 1294 2234 
L 1294 2753 
L 1863 2753 
Q 2328 2753 2575 2939 
Q 2822 3125 2822 3475 
Q 2822 3834 2567 4026 
Q 2313 4219 1838 4219 
Q 1578 4219 1281 4162 
Q 984 4106 628 3988 
L 628 4550 
Q 988 4650 1302 4700 
Q 1616 4750 1894 4750 
Q 2613 4750 3031 4423 
Q 3450 4097 3450 3541 
Q 3450 3153 3228 2886 
Q 3006 2619 2597 2516 
z
" transform="scale(0.015625)"/>
       </defs>
       <use xlink:href="#DejaVuSans-33"/>
       <use xlink:href="#DejaVuSans-32" x="63.623047"/>
       <use xlink:href="#DejaVuSans-30" x="127.246094"/>
      </g>
     </g>
    </g>
    <g id="ytick_2">
     <g id="line2d_11">
      <path d="M 144 445.130281 
L 1036.8 445.130281 
" clip-path="url(#pf41b6739a5)" style="fill: none; stroke: #b0b0b0; stroke-width: 0.8; stroke-linecap: square"/>
     </g>
     <g id="line2d_12">
      <g>
       <use xlink:href="#ma333baabc2" x="144" y="445.130281" style="stroke: #000000; stroke-width: 0.8"/>
      </g>
     </g>
     <g id="text_7">
      <!-- 340 -->
      <g transform="translate(117.9125 448.9295) scale(0.1 -0.1)">
       <defs>
        <path id="DejaVuSans-34" d="M 2419 4116 
L 825 1625 
L 2419 1625 
L 2419 4116 
z
M 2253 4666 
L 3047 4666 
L 3047 1625 
L 3713 1625 
L 3713 1100 
L 3047 1100 
L 3047 0 
L 2419 0 
L 2419 1100 
L 313 1100 
L 313 1709 
L 2253 4666 
z
" transform="scale(0.015625)"/>
       </defs>
       <use xlink:href="#DejaVuSans-33"/>
       <use xlink:href="#DejaVuSans-34" x="63.623047"/>
       <use xlink:href="#DejaVuSans-30" x="127.246094"/>
      </g>
     </g>
    </g>
    <g id="ytick_3">
     <g id="line2d_13">
      <path d="M 144 363.488812 
L 1036.8 363.488812 
" clip-path="url(#pf41b6739a5)" style="fill: none; stroke: #b0b0b0; stroke-width: 0.8; stroke-linecap: square"/>
     </g>
     <g id="line2d_14">
      <g>
       <use xlink:href="#ma333baabc2" x="144" y="363.488812" style="stroke: #000000; stroke-width: 0.8"/>
      </g>
     </g>
     <g id="text_8">
      <!-- 360 -->
      <g transform="translate(117.9125 367.288031) scale(0.1 -0.1)">
       <use xlink:href="#DejaVuSans-33"/>
       <use xlink:href="#DejaVuSans-36" x="63.623047"/>
       <use xlink:href="#DejaVuSans-30" x="127.246094"/>
      </g>
     </g>
    </g>
    <g id="ytick_4">
     <g id="line2d_15">
      <path d="M 144 281.847343 
L 1036.8 281.847343 
" clip-path="url(#pf41b6739a5)" style="fill: none; stroke: #b0b0b0; stroke-width: 0.8; stroke-linecap: square"/>
     </g>
     <g id="line2d_16">
      <g>
       <use xlink:href="#ma333baabc2" x="144" y="281.847343" style="stroke: #000000; stroke-width: 0.8"/>
      </g>
     </g>
     <g id="text_9">
      <!-- 380 -->
      <g transform="translate(117.9125 285.646562) scale(0.1 -0.1)">
       <use xlink:href="#DejaVuSans-33"/>
       <use xlink:href="#DejaVuSans-38" x="63.623047"/>
       <use xlink:href="#DejaVuSans-30" x="127.246094"/>
      </g>
     </g>
    </g>
    <g id="ytick_5">
     <g id="line2d_17">
      <path d="M 144 200.205875 
L 1036.8 200.205875 
" clip-path="url(#pf41b6739a5)" style="fill: none; stroke: #b0b0b0; stroke-width: 0.8; stroke-linecap: square"/>
     </g>
     <g id="line2d_18">
      <g>
       <use xlink:href="#ma333baabc2" x="144" y="200.205875" style="stroke: #000000; stroke-width: 0.8"/>
      </g>
     </g>
     <g id="text_10">
      <!-- 400 -->
      <g transform="translate(117.9125 204.005093) scale(0.1 -0.1)">
       <use xlink:href="#DejaVuSans-34"/>
       <use xlink:href="#DejaVuSans-30" x="63.623047"/>
       <use xlink:href="#DejaVuSans-30" x="127.246094"/>
      </g>
     </g>
    </g>
    <g id="ytick_6">
     <g id="line2d_19">
      <path d="M 144 118.564406 
L 1036.8 118.564406 
" clip-path="url(#pf41b6739a5)" style="fill: none; stroke: #b0b0b0; stroke-width: 0.8; stroke-linecap: square"/>
     </g>
     <g id="line2d_20">
      <g>
       <use xlink:href="#ma333baabc2" x="144" y="118.564406" style="stroke: #000000; stroke-width: 0.8"/>
      </g>
     </g>
     <g id="text_11">
      <!-- 420 -->
      <g transform="translate(117.9125 122.363625) scale(0.1 -0.1)">
       <use xlink:href="#DejaVuSans-34"/>
       <use xlink:href="#DejaVuSans-32" x="63.623047"/>
       <use xlink:href="#DejaVuSans-30" x="127.246094"/>
      </g>
     </g>
    </g>
    <g id="text_12">
     <!-- CO2 (ppm) -->
     <g transform="translate(110.169062 376.412344) rotate(-90) scale(0.18 -0.18)">
      <defs>
       <path id="DejaVuSans-43" d="M 4122 4306 
L 4122 3641 
Q 3803 3938 3442 4084 
Q 3081 4231 2675 4231 
Q 1875 4231 1450 3742 
Q 1025 3253 1025 2328 
Q 1025 1406 1450 917 
Q 1875 428 2675 428 
Q 3081 428 3442 575 
Q 3803 722 4122 1019 
L 4122 359 
Q 3791 134 3420 21 
Q 3050 -91 2638 -91 
Q 1578 -91 968 557 
Q 359 1206 359 2328 
Q 359 3453 968 4101 
Q 1578 4750 2638 4750 
Q 3056 4750 3426 4639 
Q 3797 4528 4122 4306 
z
" transform="scale(0.015625)"/>
       <path id="DejaVuSans-4f" d="M 2522 4238 
Q 1834 4238 1429 3725 
Q 1025 3213 1025 2328 
Q 1025 1447 1429 934 
Q 1834 422 2522 422 
Q 3209 422 3611 934 
Q 4013 1447 4013 2328 
Q 4013 3213 3611 3725 
Q 3209 4238 2522 4238 
z
M 2522 4750 
Q 3503 4750 4090 4092 
Q 4678 3434 4678 2328 
Q 4678 1225 4090 567 
Q 3503 -91 2522 -91 
Q 1538 -91 948 565 
Q 359 1222 359 2328 
Q 359 3434 948 4092 
Q 1538 4750 2522 4750 
z
" transform="scale(0.015625)"/>
       <path id="DejaVuSans-20" transform="scale(0.015625)"/>
       <path id="DejaVuSans-28" d="M 1984 4856 
Q 1566 4138 1362 3434 
Q 1159 2731 1159 2009 
Q 1159 1288 1364 580 
Q 1569 -128 1984 -844 
L 1484 -844 
Q 1016 -109 783 600 
Q 550 1309 550 2009 
Q 550 2706 781 3412 
Q 1013 4119 1484 4856 
L 1984 4856 
z
" transform="scale(0.015625)"/>
       <path id="DejaVuSans-70" d="M 1159 525 
L 1159 -1331 
L 581 -1331 
L 581 3500 
L 1159 3500 
L 1159 2969 
Q 1341 3281 1617 3432 
Q 1894 3584 2278 3584 
Q 2916 3584 3314 3078 
Q 3713 2572 3713 1747 
Q 3713 922 3314 415 
Q 2916 -91 2278 -91 
Q 1894 -91 1617 61 
Q 1341 213 1159 525 
z
M 3116 1747 
Q 3116 2381 2855 2742 
Q 2594 3103 2138 3103 
Q 1681 3103 1420 2742 
Q 1159 2381 1159 1747 
Q 1159 1113 1420 752 
Q 1681 391 2138 391 
Q 2594 391 2855 752 
Q 3116 1113 3116 1747 
z
" transform="scale(0.015625)"/>
       <path id="DejaVuSans-6d" d="M 3328 2828 
Q 3544 3216 3844 3400 
Q 4144 3584 4550 3584 
Q 5097 3584 5394 3201 
Q 5691 2819 5691 2113 
L 5691 0 
L 5113 0 
L 5113 2094 
Q 5113 2597 4934 2840 
Q 4756 3084 4391 3084 
Q 3944 3084 3684 2787 
Q 3425 2491 3425 1978 
L 3425 0 
L 2847 0 
L 2847 2094 
Q 2847 2600 2669 2842 
Q 2491 3084 2119 3084 
Q 1678 3084 1418 2786 
Q 1159 2488 1159 1978 
L 1159 0 
L 581 0 
L 581 3500 
L 1159 3500 
L 1159 2956 
Q 1356 3278 1631 3431 
Q 1906 3584 2284 3584 
Q 2666 3584 2933 3390 
Q 3200 3197 3328 2828 
z
" transform="scale(0.015625)"/>
       <path id="DejaVuSans-29" d="M 513 4856 
L 1013 4856 
Q 1481 4119 1714 3412 
Q 1947 2706 1947 2009 
Q 1947 1309 1714 600 
Q 1481 -109 1013 -844 
L 513 -844 
Q 928 -128 1133 580 
Q 1338 1288 1338 2009 
Q 1338 2731 1133 3434 
Q 928 4138 513 4856 
z
" transform="scale(0.015625)"/>
      </defs>
      <use xlink:href="#DejaVuSans-43"/>
      <use xlink:href="#DejaVuSans-4f" x="69.824219"/>
      <use xlink:href="#DejaVuSans-32" x="148.535156"/>
      <use xlink:href="#DejaVuSans-20" x="212.158203"/>
      <use xlink:href="#DejaVuSans-28" x="243.945312"/>
      <use xlink:href="#DejaVuSans-70" x="282.958984"/>
      <use xlink:href="#DejaVuSans-70" x="346.435547"/>
      <use xlink:href="#DejaVuSans-6d" x="409.912109"/>
      <use xlink:href="#DejaVuSans-29" x="507.324219"/>
     </g>
    </g>
   </g>
   <g id="line2d_21">
    <path d="M 184.581818 544.243024 
L 184.824532 541.467214 
L 185.067247 540.12013 
L 185.309961 540.773261 
L 185.552675 540.324233 
L 185.795389 540.609978 
L 186.280818 537.303499 
L 186.523532 539.01797 
L 186.766246 539.181253 
L 187.00896 535.915594 
L 187.251675 534.650151 
L 187.494389 535.874773 
L 187.979817 529.465918 
L 188.222532 530.813002 
L 188.465246 530.731361 
L 188.70796 527.710626 
L 188.950674 526.935032 
L 189.193388 527.506523 
L 189.436103 526.608467 
L 189.678817 526.526825 
L 189.921531 528.976069 
L 190.164245 526.445184 
L 190.40696 529.139352 
L 190.649674 530.486436 
L 190.892388 534.201123 
L 191.135102 532.323369 
L 191.377816 533.262246 
L 191.863245 537.670886 
L 192.105959 540.569158 
L 192.348673 540.242592 
L 192.591388 546.773909 
L 192.834102 548.080173 
L 193.076816 548.325097 
L 193.31953 548.896587 
L 193.562244 550.12121 
L 193.804959 553.999179 
L 194.047673 552.652095 
L 194.290387 554.04 
L 194.533101 551.590756 
L 194.775816 550.406955 
L 195.01853 550.080389 
L 195.261244 549.223153 
L 195.503958 546.773909 
L 195.746672 546.773909 
L 196.717529 542.242808 
L 197.688386 538.936328 
L 197.9311 538.895508 
L 198.173815 538.977149 
L 198.416529 538.773045 
L 198.659243 535.956415 
L 198.901957 535.180821 
L 199.387386 534.772613 
L 199.872814 531.180389 
L 200.115528 532.037624 
L 200.358243 529.180173 
L 200.600957 528.608683 
L 200.843671 531.26203 
L 201.086385 527.833089 
L 201.3291 528.118834 
L 201.571814 524.03676 
L 201.814528 524.893996 
L 202.057242 524.281685 
L 202.542671 526.404363 
L 202.785385 526.690108 
L 203.028099 528.322937 
L 203.270813 528.853607 
L 203.756242 530.568078 
L 203.998956 532.93568 
L 204.24167 538.364838 
L 204.484385 535.058359 
L 204.727099 535.303283 
L 205.212527 539.997667 
L 205.455241 546.120778 
L 205.697956 546.039136 
L 206.183384 549.100691 
L 206.668813 544.692052 
L 206.911527 547.304579 
L 207.154241 545.426825 
L 207.396955 545.222721 
L 207.639669 544.243024 
L 207.882384 543.834816 
L 208.125098 544.324665 
L 208.610526 540.854903 
L 208.853241 540.977365 
L 209.095955 538.936328 
L 209.338669 539.262894 
L 209.824097 537.140216 
L 210.066812 534.976717 
L 210.309526 534.446048 
L 210.55224 534.650151 
L 210.794954 535.833952 
L 211.280383 533.507171 
L 211.765811 529.302635 
L 212.008525 529.710842 
L 212.25124 528.976069 
L 212.493954 526.975853 
L 212.736668 527.669806 
L 212.979382 525.66959 
L 213.222097 525.71041 
L 213.464811 522.567214 
L 213.707525 523.587732 
L 213.950239 525.302203 
L 214.192953 523.138704 
L 214.435668 523.587732 
L 214.678382 522.485572 
L 214.921096 522.036544 
L 215.16381 523.057063 
L 215.406525 523.220346 
L 215.891953 526.159438 
L 216.134667 525.832873 
L 216.620096 526.975853 
L 216.86281 530.813002 
L 217.105524 531.874341 
L 217.348238 532.160086 
L 217.590953 538.038272 
L 217.833667 537.058575 
L 218.804524 540.446695 
L 219.047238 544.243024 
L 219.289952 543.426609 
L 219.532666 546.773909 
L 220.018095 544.243024 
L 220.260809 543.998099 
L 220.503523 543.344968 
L 220.988952 539.344536 
L 221.47438 538.242376 
L 221.717094 537.752527 
L 221.959809 536.323801 
L 222.202523 534.201123 
L 223.17338 531.26203 
L 223.658808 531.7927 
L 224.386951 529.343456 
L 224.629665 529.425097 
L 224.872379 527.996371 
L 225.115094 527.588164 
L 225.357808 525.383844 
L 225.600522 525.587948 
L 225.843236 525.220562 
L 226.08595 522.852959 
L 226.328665 518.403499 
L 226.571379 518.934168 
L 227.056807 518.730065 
L 227.299522 517.464622 
L 227.542236 517.505443 
L 227.78495 517.301339 
L 228.270378 519.301555 
L 228.513093 523.179525 
L 229.241235 527.506523 
L 229.48395 528.567862 
L 230.940235 541.303931 
L 231.182949 539.793564 
L 231.425663 543.140864 
L 231.668378 542.977581 
L 231.911092 543.385788 
L 232.153806 541.957063 
L 232.39652 544.528769 
L 232.639234 542.528553 
L 233.367377 539.711922 
L 233.610091 538.4873 
L 234.09552 536.732009 
L 234.338234 534.650151 
L 234.580948 533.833737 
L 234.823662 532.527473 
L 235.066377 531.915162 
L 235.309091 530.69054 
L 235.794519 527.261598 
L 240.40609 518.321857 
L 240.648804 518.362678 
L 241.376946 520.362894 
L 241.619661 522.118186 
L 241.862375 526.975853 
L 242.105089 525.628769 
L 242.347803 526.690108 
L 242.590518 530.282333 
L 243.561375 534.486868 
L 244.046803 540.773261 
L 244.289517 544.773693 
L 244.532231 538.977149 
L 244.774946 539.303715 
L 245.01766 541.018186 
L 245.988517 535.874773 
L 246.473945 536.895292 
L 246.716659 534.486868 
L 246.959374 533.221425 
L 247.202088 532.568294 
L 247.444802 531.139568 
L 247.687516 531.22121 
L 248.172945 530.15987 
L 248.415659 530.200691 
L 248.658373 527.628985 
L 248.901087 526.281901 
L 249.143802 525.955335 
L 249.386516 526.118618 
L 249.62923 523.914298 
L 250.114659 522.403931 
L 250.357373 522.771317 
L 250.600087 524.771533 
L 251.085515 518.811706 
L 251.32823 517.505443 
L 251.570944 517.91365 
L 251.813658 519.179093 
L 252.056372 516.729849 
L 252.784515 519.873045 
L 253.027229 517.546263 
L 253.269943 519.138272 
L 253.512658 519.546479 
L 253.755372 519.546479 
L 253.998086 518.648423 
L 254.2408 518.730065 
L 254.726229 519.5873 
L 255.211657 528.853607 
L 255.454371 528.935248 
L 255.697086 534.854255 
L 255.9398 531.588596 
L 256.182514 531.955983 
L 256.667943 534.731793 
L 256.910657 533.874557 
L 257.153371 539.630281 
L 257.396085 540.650799 
L 257.881514 535.507387 
L 258.124228 536.732009 
L 258.366942 536.446263 
L 258.852371 529.792484 
L 259.095085 530.894644 
L 259.337799 530.15987 
L 259.580513 530.486436 
L 259.823227 529.343456 
L 260.065942 529.261814 
L 260.308656 527.996371 
L 260.55137 528.037192 
L 260.794084 524.771533 
L 261.036799 524.200043 
L 261.279513 522.322289 
L 261.764941 521.628337 
L 262.007656 519.628121 
L 262.25037 519.954687 
L 262.493084 519.424017 
L 262.735798 518.199395 
L 262.978512 518.036112 
L 263.706655 512.280389 
L 263.949369 511.994644 
L 264.192084 510.933305 
L 264.434798 510.810842 
L 264.677512 512.36203 
L 264.920226 510.443456 
L 265.16294 510.035248 
L 265.405655 511.586436 
L 265.648369 509.178013 
L 265.891083 510.361814 
L 266.376512 511.463974 
L 266.86194 515.260302 
L 267.104654 514.933737 
L 268.318225 523.301987 
L 268.56094 530.200691 
L 269.046368 527.016674 
L 269.289082 534.03784 
L 269.531796 533.058143 
L 269.774511 533.670454 
L 270.017225 535.344104 
L 270.259939 535.344104 
L 270.745368 532.445832 
L 270.988082 533.343888 
L 271.716224 526.649287 
L 271.958939 525.792052 
L 272.201653 523.506091 
L 272.444367 523.220346 
L 272.687081 522.036544 
L 272.929796 521.424233 
L 273.17251 521.179309 
L 273.415224 518.934168 
L 273.657938 514.811274 
L 274.386081 517.832009 
L 274.628795 517.668726 
L 274.871509 515.097019 
L 275.114224 516.158359 
L 275.356938 514.770454 
L 275.599652 516.158359 
L 275.842366 513.178445 
L 276.327795 513.913218 
L 276.570509 509.58622 
L 277.055937 507.994212 
L 277.298652 505.708251 
L 277.541366 505.300043 
L 277.78408 507.259438 
L 278.026794 505.993996 
L 278.269508 506.606307 
L 278.512223 506.565486 
L 278.754937 507.790108 
L 278.997651 513.260086 
L 279.240365 512.484492 
L 279.48308 514.974557 
L 279.725794 515.13784 
L 279.968508 516.77067 
L 280.211222 516.974773 
L 280.939365 521.056847 
L 281.182079 524.812354 
L 281.424793 526.730929 
L 281.667508 526.486004 
L 281.910222 529.098531 
L 282.152936 529.425097 
L 282.638365 531.629417 
L 282.881079 531.343672 
L 283.123793 527.34324 
L 283.366507 528.935248 
L 283.609221 527.34324 
L 283.851936 526.730929 
L 284.09465 525.383844 
L 284.580078 520.485356 
L 284.822793 521.056847 
L 285.308221 517.423801 
L 285.550935 518.689244 
L 285.793649 517.382981 
L 286.036364 516.729849 
L 286.279078 516.566566 
L 286.521792 516.199179 
L 286.764506 515.219482 
L 287.007221 515.913434 
L 287.492649 512.647775 
L 287.735363 513.790756 
L 287.978077 513.913218 
L 288.220792 511.055767 
L 288.463506 511.055767 
L 288.70622 509.58622 
L 288.948934 507.300259 
L 289.191649 507.218618 
L 289.434363 506.198099 
L 289.677077 507.014514 
L 289.919791 504.524449 
L 290.162505 503.789676 
L 290.40522 505.993996 
L 290.890648 502.850799 
L 291.133362 503.626393 
L 291.376077 503.46311 
L 291.618791 504.075421 
L 292.104219 507.871749 
L 292.346933 507.586004 
L 292.589648 509.912786 
L 292.832362 510.68838 
L 293.075076 512.8927 
L 293.31779 516.607387 
L 294.045933 519.668942 
L 294.288647 520.975205 
L 294.531361 524.975637 
L 294.774076 521.954903 
L 295.01679 527.669806 
L 295.259504 527.220778 
L 295.502218 524.444968 
L 295.744933 524.649071 
L 296.230361 527.098315 
L 296.473075 523.914298 
L 296.715789 523.138704 
L 297.201218 519.505659 
L 297.686646 516.81149 
L 298.172075 513.178445 
L 298.414789 513.749935 
L 298.657503 512.933521 
L 298.900217 510.198531 
L 299.142932 508.973909 
L 299.385646 509.871965 
L 299.62836 509.790324 
L 299.871074 510.770022 
L 300.841931 503.99378 
L 301.084645 503.422289 
L 301.32736 502.442592 
L 301.570074 502.728337 
L 301.812788 501.177149 
L 302.055502 497.666566 
L 302.298217 499.911706 
L 302.540931 499.952527 
L 302.783645 496.074557 
L 303.026359 494.849935 
L 303.269074 498.768726 
L 303.511788 498.523801 
L 303.754502 496.441944 
L 303.997216 500.197451 
L 304.23993 499.095292 
L 304.482645 499.299395 
L 304.968073 501.626177 
L 305.210787 501.993564 
L 305.696216 504.442808 
L 305.93893 508.402419 
L 306.181644 508.157495 
L 306.424358 513.954039 
L 306.667073 516.321641 
L 306.909787 513.954039 
L 307.152501 517.750367 
L 307.395215 515.382765 
L 307.63793 515.178661 
L 307.880644 518.770886 
L 308.123358 520.648639 
L 308.608786 518.607603 
L 308.851501 518.893348 
L 309.094215 517.750367 
L 309.336929 515.995076 
L 309.579643 515.423585 
L 310.065072 512.402851 
L 310.307786 510.810842 
L 310.5505 510.484276 
L 311.278643 507.586004 
L 311.521357 504.728553 
L 312.006786 507.177797 
L 312.2495 504.116242 
L 312.492214 503.503931 
L 312.977642 500.973045 
L 313.220357 501.585356 
L 313.463071 498.809546 
L 313.705785 499.01365 
L 313.948499 496.115378 
L 314.191214 498.401339 
L 314.433928 493.298747 
L 314.676642 494.768294 
L 314.919356 494.890756 
L 315.16207 491.870022 
L 315.647499 495.911274 
L 316.132927 492.768078 
L 316.618356 495.952095 
L 316.86107 494.686652 
L 317.103784 495.298963 
L 317.346498 497.258359 
L 317.589213 497.013434 
L 317.831927 501.299611 
L 318.074641 501.136328 
L 318.56007 505.381685 
L 318.802784 505.504147 
L 319.045498 506.932873 
L 319.288212 507.014514 
L 319.530926 513.178445 
L 319.773641 514.647991 
L 320.016355 512.157927 
L 320.259069 513.790756 
L 320.501783 513.913218 
L 320.744498 513.668294 
L 320.987212 512.239568 
L 321.229926 514.852095 
L 321.47264 514.443888 
L 321.715355 513.790756 
L 321.958069 511.708898 
L 322.200783 511.423153 
L 322.686211 507.545184 
L 322.928926 507.463542 
L 323.899783 503.218186 
L 324.142497 502.728337 
L 324.385211 502.687516 
L 324.627925 499.340216 
L 324.870639 499.503499 
L 325.113354 500.034168 
L 325.356068 500.279093 
L 325.841496 497.993132 
L 326.084211 497.584924 
L 326.326925 496.80933 
L 326.569639 497.87067 
L 326.812353 496.360302 
L 327.055067 496.401123 
L 327.297782 497.789028 
L 327.78321 491.829201 
L 328.025924 493.298747 
L 328.268639 489.747343 
L 328.511353 488.890108 
L 328.754067 490.359654 
L 328.996781 490.808683 
L 329.239495 491.829201 
L 329.48221 490.849503 
L 329.724924 493.380389 
L 329.967638 491.992484 
L 330.210352 494.441728 
L 330.453067 494.605011 
L 330.695781 495.952095 
L 330.938495 501.422073 
L 331.181209 499.258575 
L 331.666638 503.871317 
L 331.909352 504.769374 
L 332.152066 510.280173 
L 332.39478 511.872181 
L 332.637495 512.443672 
L 332.880209 513.46419 
L 333.365637 513.219266 
L 333.608351 514.729633 
L 333.851066 512.402851 
L 334.09378 511.708898 
L 334.336494 508.810626 
L 334.579208 508.973909 
L 334.821923 508.279957 
L 335.307351 504.279525 
L 335.550065 504.810194 
L 336.035494 501.136328 
L 336.278208 500.850583 
L 336.520922 499.789244 
L 336.763636 499.54432 
L 337.006351 499.748423 
L 337.249065 499.503499 
L 337.491779 497.217538 
L 337.734493 496.564406 
L 337.977207 494.319266 
L 338.219922 494.809114 
L 338.462636 496.482765 
L 338.70535 495.829633 
L 338.948064 497.544104 
L 339.918921 488.114514 
L 340.40435 485.420346 
L 340.647064 485.869374 
L 340.889778 485.787732 
L 341.132492 486.971533 
L 341.375207 485.501987 
L 341.617921 485.09378 
L 342.103349 489.420778 
L 342.346064 489.869806 
L 342.588778 491.992484 
L 342.831492 491.543456 
L 343.074206 492.849719 
L 343.31692 495.258143 
L 343.559635 493.543672 
L 344.045063 498.523801 
L 344.287777 499.58514 
L 344.530492 499.952527 
L 344.773206 506.157279 
L 345.258634 503.218186 
L 345.744063 509.382117 
L 345.986777 509.504579 
L 346.472205 504.238704 
L 346.71492 505.912354 
L 347.200348 500.932225 
L 347.443062 501.748639 
L 347.685776 500.483197 
L 347.928491 498.278877 
L 348.171205 498.44216 
L 348.413919 497.503283 
L 348.899348 494.482549 
L 349.142062 493.053823 
L 349.384776 492.482333 
L 349.62749 492.31905 
L 350.355633 489.257495 
L 350.598347 487.828769 
L 350.841061 487.257279 
L 351.083776 487.175637 
L 351.811918 483.705875 
L 352.054632 482.522073 
L 352.297347 483.134384 
L 352.540061 480.930065 
L 352.782775 481.460734 
L 353.025489 478.031793 
L 353.268204 477.133737 
L 353.510918 476.929633 
L 353.753632 476.358143 
L 353.996346 475.215162 
L 354.23906 475.419266 
L 354.481775 476.684708 
L 354.724489 475.419266 
L 355.209917 479.297235 
L 355.452632 480.11365 
L 355.695346 479.664622 
L 355.93806 481.583197 
L 356.180774 485.624449 
L 356.423488 485.420346 
L 356.666203 485.746911 
L 356.908917 487.828769 
L 357.151631 488.563542 
L 357.394345 491.951663 
L 357.63706 492.237408 
L 357.879774 495.543888 
L 358.122488 494.890756 
L 358.607916 499.789244 
L 359.093345 496.523585 
L 359.336059 496.23784 
L 359.578773 497.421641 
L 360.064202 494.033521 
L 360.306916 493.298747 
L 360.792344 489.788164 
L 361.035059 491.21689 
L 361.277773 491.420994 
L 361.520487 493.094644 
L 361.763201 491.21689 
L 362.005916 490.359654 
L 362.24863 488.849287 
L 362.491344 488.318618 
L 362.734058 486.563326 
L 362.976773 483.746695 
L 363.219487 482.644536 
L 363.462201 483.42013 
L 363.947629 482.685356 
L 364.190344 481.011706 
L 364.433058 477.297019 
L 364.675772 477.786868 
L 364.918486 479.54216 
L 365.161201 475.827473 
L 365.403915 477.174557 
L 365.646629 473.99054 
L 365.889343 473.010842 
L 366.132057 473.908898 
L 366.617486 472.561814 
L 366.8602 474.194644 
L 367.102914 473.949719 
L 367.345629 477.623585 
L 367.588343 477.623585 
L 367.831057 476.684708 
L 368.073771 478.848207 
L 368.316485 478.848207 
L 368.5592 480.64432 
L 368.801914 483.99162 
L 369.044628 481.7873 
L 369.287342 485.542808 
L 369.530057 486.23676 
L 369.772771 488.808467 
L 370.015485 490.155551 
L 370.258199 493.339568 
L 370.500913 493.951879 
L 370.986342 498.523801 
L 371.229056 496.605227 
L 371.47177 496.564406 
L 371.714485 497.91149 
L 371.957199 495.870454 
L 372.199913 495.298963 
L 372.442627 494.115162 
L 372.685341 493.706955 
L 372.928056 490.727041 
L 373.17077 491.461814 
L 373.413484 491.012786 
L 373.656198 487.951231 
L 373.898913 487.053175 
L 374.141627 486.644968 
L 374.384341 486.808251 
L 374.627055 486.19594 
L 374.869769 486.644968 
L 375.112484 484.808035 
L 375.355198 481.297451 
L 375.597912 481.093348 
L 375.840626 479.909546 
L 376.083341 481.828121 
L 376.326055 478.889028 
L 376.568769 478.235896 
L 376.811483 479.338056 
L 377.78234 473.541512 
L 378.025054 471.296371 
L 378.267769 471.459654 
L 378.510483 473.133305 
L 378.753197 469.826825 
L 378.995911 469.867646 
L 379.238625 470.561598 
L 379.48134 470.68406 
L 379.724054 469.051231 
L 379.966768 470.11257 
L 380.209482 472.112786 
L 380.452197 471.827041 
L 380.694911 472.88838 
L 381.180339 477.541944 
L 381.423054 481.624017 
L 381.665768 479.501339 
L 381.908482 482.522073 
L 382.151196 483.052743 
L 382.39391 484.481469 
L 382.636625 488.767646 
L 382.879339 490.482117 
L 383.122053 488.155335 
L 383.364767 491.951663 
L 383.607482 493.706955 
L 383.850196 492.931361 
L 384.09291 493.951879 
L 384.335624 493.870238 
L 384.578338 491.747559 
L 384.821053 490.767862 
L 385.063767 488.563542 
L 385.306481 489.175853 
L 385.549195 489.298315 
L 385.79191 487.787948 
L 386.034624 485.338704 
L 386.520052 483.705875 
L 386.762766 481.297451 
L 387.005481 480.64432 
L 387.248195 479.501339 
L 387.490909 479.746263 
L 388.219052 476.603067 
L 388.461766 476.970454 
L 388.70448 475.623369 
L 388.947194 472.602635 
L 389.189909 475.786652 
L 389.432623 474.439568 
L 389.675337 471.21473 
L 389.918051 473.092484 
L 390.160766 467.989892 
L 390.40348 466.601987 
L 390.646194 468.520562 
L 391.374337 466.561166 
L 391.617051 468.234816 
L 391.859765 467.132657 
L 392.102479 463.744536 
L 392.587908 468.112354 
L 392.830622 467.010194 
L 393.801479 471.949503 
L 394.286907 475.827473 
L 394.772336 478.889028 
L 395.01505 483.256847 
L 395.257764 483.093564 
L 395.743193 486.930713 
L 395.985907 485.542808 
L 396.471335 492.35987 
L 396.71405 490.604579 
L 396.956764 489.747343 
L 397.199478 487.543024 
L 397.442192 489.298315 
L 397.684906 489.869806 
L 398.170335 484.154903 
L 398.655763 483.052743 
L 398.898478 481.21581 
L 399.141192 480.481037 
L 399.383906 478.072613 
L 399.869334 475.378445 
L 400.112049 475.990756 
L 400.354763 473.092484 
L 400.597477 472.684276 
L 400.840191 472.765918 
L 401.082906 471.990324 
L 401.32562 472.31689 
L 401.811048 471.092268 
L 402.539191 465.050799 
L 402.781905 465.418186 
L 403.267334 461.662678 
L 403.752762 460.927905 
L 403.995476 458.233737 
L 404.238191 458.152095 
L 404.480905 459.499179 
L 404.723619 457.988812 
L 404.966333 458.478661 
L 405.451762 460.152311 
L 405.93719 461.295292 
L 406.422619 465.09162 
L 406.665333 465.050799 
L 406.908047 467.132657 
L 407.393475 473.623153 
L 407.63619 473.745616 
L 407.878904 474.317106 
L 408.121618 474.276285 
L 408.607047 480.970886 
L 408.849761 477.33784 
L 409.092475 481.991404 
L 409.335189 484.073261 
L 409.820618 479.705443 
L 410.063332 479.705443 
L 410.306046 478.807387 
L 410.54876 477.215378 
L 410.791475 477.623585 
L 411.034189 475.337624 
L 411.519617 472.847559 
L 412.24776 468.561382 
L 412.490474 466.846911 
L 412.733188 468.479741 
L 412.975903 467.010194 
L 413.461331 461.662678 
L 413.704045 465.499827 
L 413.946759 464.969158 
L 414.189474 462.805659 
L 414.432188 462.642376 
L 414.674902 460.315594 
L 414.917616 461.009546 
L 415.403045 455.743672 
L 415.645759 457.009114 
L 415.888473 453.294428 
L 416.131187 453.498531 
L 416.373902 455.417106 
L 416.616616 453.049503 
L 417.102044 452.8454 
L 417.344759 453.98838 
L 417.587473 453.661814 
L 417.830187 451.294212 
L 418.072901 452.31473 
L 418.55833 455.743672 
L 418.801044 454.51905 
L 419.043758 458.192916 
L 419.286472 458.478661 
L 419.529187 461.621857 
L 419.771901 462.683197 
L 420.257329 466.152959 
L 420.500043 467.908251 
L 420.742758 468.071533 
L 420.985472 470.071749 
L 421.4709 476.970454 
L 421.713615 476.19486 
L 421.956329 474.643672 
L 422.199043 477.33784 
L 422.441757 475.909114 
L 422.684472 473.582333 
L 422.927186 472.929201 
L 423.412614 470.194212 
L 423.655328 470.071749 
L 424.626185 464.887516 
L 424.8689 465.009978 
L 425.111614 464.193564 
L 425.354328 464.030281 
L 426.082471 457.539784 
L 426.325185 457.743888 
L 426.567899 459.213434 
L 426.810613 458.519482 
L 427.053328 458.192916 
L 427.296042 456.845832 
L 427.538756 454.110842 
L 427.78147 455.580389 
L 428.024184 449.089892 
L 428.266899 449.987948 
L 428.509613 452.559654 
L 429.237756 446.722289 
L 429.723184 449.661382 
L 429.965898 445.66095 
L 430.208612 446.640648 
L 430.451327 445.375205 
L 430.694041 447.048855 
L 430.936755 449.579741 
L 431.422184 449.171533 
L 431.907612 453.98838 
L 432.39304 457.988812 
L 432.635755 457.213218 
L 433.121183 460.682981 
L 433.363897 467.29594 
L 433.606612 467.704147 
L 433.849326 469.54108 
L 434.09204 468.724665 
L 434.334754 472.520994 
L 434.577468 469.132873 
L 434.820183 469.132873 
L 435.062897 469.704363 
L 435.305611 470.64324 
L 436.519182 462.724017 
L 436.761896 461.458575 
L 437.004611 459.335896 
L 437.247325 458.274557 
L 437.490039 457.784708 
L 437.732753 455.702851 
L 437.975468 454.600691 
L 438.218182 455.335464 
L 438.460896 451.661598 
L 438.70361 451.21257 
L 438.946324 453.049503 
L 439.189039 452.682117 
L 439.431753 450.477797 
L 439.674467 452.192268 
L 439.917181 447.906091 
L 440.159896 446.926393 
L 440.888038 440.966566 
L 441.130753 443.41581 
L 441.373467 441.17067 
L 441.616181 442.027905 
L 442.101609 438.884708 
L 442.344324 439.741944 
L 442.587038 439.456199 
L 442.829752 441.293132 
L 443.072466 438.027473 
L 443.315181 439.456199 
L 443.557895 439.415378 
L 444.043323 443.456631 
L 444.286037 443.293348 
L 444.528752 445.987516 
L 444.771466 451.130929 
L 445.01418 449.457279 
L 445.256894 453.335248 
L 445.499609 454.192484 
L 445.742323 454.233305 
L 445.985037 454.070022 
L 446.227751 457.254039 
L 446.470465 458.723585 
L 446.71318 462.397451 
L 446.955894 464.316026 
L 447.198608 461.254471 
L 447.441322 462.111706 
L 447.684037 461.948423 
L 448.412179 458.723585 
L 448.654893 457.376501 
L 449.383036 455.62121 
L 450.353893 450.273693 
L 451.082036 447.538704 
L 451.32475 447.701987 
L 451.567464 446.885572 
L 451.810178 442.721857 
L 452.052893 444.885356 
L 452.295607 444.232225 
L 452.538321 440.558359 
L 452.781035 442.068726 
L 453.023749 440.803283 
L 453.266464 437.333521 
L 453.751892 435.170022 
L 453.994606 434.884276 
L 454.237321 433.700475 
L 454.480035 435.65987 
L 454.722749 433.047343 
L 454.965463 432.802419 
L 455.208177 433.618834 
L 455.450892 434.027041 
L 455.693606 433.822937 
L 456.179034 434.680173 
L 456.421749 437.660086 
L 456.664463 438.354039 
L 456.907177 440.762462 
L 457.149891 441.497235 
L 457.392605 446.028337 
L 457.63532 444.191404 
L 458.606177 454.968078 
L 458.848891 454.314946 
L 459.091605 456.478445 
L 459.334319 457.172397 
L 459.577033 458.315378 
L 459.819748 461.581037 
L 461.033319 455.008898 
L 461.761462 450.886004 
L 462.004176 447.906091 
L 462.24689 447.946911 
L 462.489604 447.457063 
L 462.732318 446.477365 
L 462.975033 444.109762 
L 463.217747 443.905659 
L 463.460461 443.456631 
L 464.188604 439.782765 
L 464.431318 437.129417 
L 464.674032 440.517538 
L 464.916746 440.395076 
L 465.159461 436.108898 
L 465.402175 434.190324 
L 465.644889 434.394428 
L 465.887603 433.700475 
L 466.130318 433.578013 
L 466.373032 432.965702 
L 466.85846 430.761382 
L 467.101174 427.536544 
L 467.343889 429.414298 
L 467.586603 430.026609 
L 467.829317 427.536544 
L 468.072031 428.312138 
L 468.314746 428.312138 
L 468.55746 430.843024 
L 468.800174 430.761382 
L 469.042888 430.924665 
L 469.771031 436.76203 
L 470.013745 436.802851 
L 470.256459 437.660086 
L 470.499174 439.701123 
L 470.984602 444.803715 
L 471.227316 446.232441 
L 471.47003 451.906523 
L 471.712745 449.620562 
L 471.955459 450.722721 
L 472.440887 457.621425 
L 472.683602 455.988596 
L 472.926316 452.8454 
L 473.16903 454.845616 
L 473.411744 453.457711 
L 473.654458 450.355335 
L 473.897173 451.21257 
L 474.382601 446.19162 
L 474.625315 445.538488 
L 474.86803 445.62013 
L 475.110744 443.293348 
L 475.353458 442.150367 
L 475.838886 441.21149 
L 476.081601 439.170454 
L 476.324315 438.639784 
L 476.567029 439.946048 
L 477.295172 433.741296 
L 477.537886 434.843456 
L 477.7806 433.455551 
L 478.023314 435.333305 
L 478.266029 434.51689 
L 478.508743 428.475421 
L 478.751457 429.49594 
L 478.994171 428.638704 
L 479.236886 425.0873 
L 479.965028 422.760518 
L 480.207742 422.882981 
L 480.450457 421.495076 
L 480.693171 421.16851 
L 481.421314 422.189028 
L 481.664028 424.474989 
L 481.906742 424.760734 
L 482.392171 426.311922 
L 482.634885 429.822505 
L 482.877599 430.108251 
L 483.120313 434.435248 
L 483.363027 432.598315 
L 483.605742 438.109114 
L 483.848456 436.313002 
L 484.09117 437.700907 
L 484.333884 445.293564 
L 484.576599 445.08946 
L 484.819313 445.62013 
L 485.062027 445.130281 
L 485.547455 446.069158 
L 485.79017 444.599611 
L 486.275598 443.579093 
L 486.518312 441.823801 
L 487.003741 440.313434 
L 487.246455 438.190756 
L 487.489169 437.496803 
L 487.974598 431.292052 
L 488.217312 430.434816 
L 488.460026 431.006307 
L 488.70274 429.169374 
L 488.945455 430.475637 
L 489.188169 430.353175 
L 489.430883 427.659006 
L 489.916311 425.985356 
L 490.159026 427.005875 
L 490.40174 425.536328 
L 490.644454 424.760734 
L 490.887168 424.474989 
L 491.129883 422.433952 
L 491.372597 421.495076 
L 492.586168 414.228985 
L 492.828882 414.188164 
L 493.071596 413.004363 
L 493.557025 416.065918 
L 493.799739 415.820994 
L 494.042453 416.147559 
L 494.285167 416.678229 
L 494.527882 418.800907 
L 494.770596 419.331577 
L 495.256024 422.474773 
L 495.498739 423.41365 
L 495.984167 428.312138 
L 496.226881 428.026393 
L 497.197738 442.232009 
L 497.440452 439.292916 
L 497.683167 439.53784 
L 497.925881 441.456415 
L 498.168595 440.06851 
L 498.411309 439.619482 
L 498.654023 437.129417 
L 498.896738 438.109114 
L 499.139452 436.72121 
L 499.867595 429.659222 
L 500.110309 430.271533 
L 500.838452 426.311922 
L 501.081166 426.352743 
L 501.566594 424.597451 
L 501.809308 424.597451 
L 502.052023 424.311706 
L 502.294737 420.760302 
L 502.537451 422.433952 
L 502.780165 421.290972 
L 503.265594 417.453823 
L 504.236451 411.371533 
L 504.479165 412.31041 
L 504.721879 412.147127 
L 505.207308 409.085572 
L 505.450022 408.840648 
L 505.692736 407.166998 
L 505.93545 407.697667 
L 506.178164 411.779741 
L 506.420879 408.228337 
L 506.663593 410.514298 
L 507.149021 412.963542 
L 507.877164 417.453823 
L 508.119878 419.005011 
L 508.848021 426.066998 
L 509.333449 427.373261 
L 509.576164 429.904147 
L 509.818878 427.740648 
L 510.304306 435.210842 
L 510.54702 436.557927 
L 510.789735 435.455767 
L 511.032449 435.006739 
L 511.275163 432.435032 
L 511.517877 432.067646 
L 511.760592 431.414514 
L 512.488734 426.271102 
L 512.731448 423.617754 
L 512.974163 423.332009 
L 513.216877 422.066566 
L 513.459591 424.107603 
L 513.702305 419.49486 
L 513.94502 418.923369 
L 514.187734 420.352095 
L 514.673162 418.841728 
L 514.915876 419.821425 
L 515.401305 415.902635 
L 515.644019 415.820994 
L 515.886733 416.392484 
L 516.129448 418.066134 
L 516.372162 415.739352 
L 516.614876 407.86095 
L 516.85759 409.003931 
L 517.343019 406.677149 
L 517.585733 407.085356 
L 517.828447 403.574773 
L 518.071161 404.432009 
L 518.55659 403.452311 
L 518.799304 403.860518 
L 519.042018 403.656415 
L 519.284732 405.493348 
L 519.527447 406.268942 
L 519.770161 406.513866 
L 520.012875 408.799827 
L 520.255589 409.738704 
L 520.498304 413.494212 
L 520.983732 414.963758 
L 521.469161 419.780605 
L 521.711875 422.393132 
L 521.954589 422.27067 
L 522.440017 424.597451 
L 522.682732 423.495292 
L 522.925446 427.128337 
L 523.16816 426.801771 
L 523.410874 428.924449 
L 523.653589 428.39378 
L 523.896303 428.883629 
L 524.381731 424.107603 
L 524.624445 423.372829 
L 524.86716 422.229849 
L 525.109874 421.862462 
L 525.595302 416.963974 
L 525.838017 417.576285 
L 526.323445 416.310842 
L 526.808873 411.044968 
L 527.051588 411.453175 
L 527.294302 412.718618 
L 527.537016 412.432873 
L 527.77973 412.922721 
L 528.265159 410.310194 
L 528.507873 406.513866 
L 528.750587 409.085572 
L 529.47873 403.533952 
L 529.721444 401.003067 
L 529.964158 403.248207 
L 530.206873 399.4927 
L 530.449587 398.676285 
L 530.692301 398.513002 
L 530.935015 396.18622 
L 531.177729 397.329201 
L 531.420444 396.553607 
L 531.905872 397.614946 
L 532.148586 399.574341 
L 532.391301 400.268294 
L 532.634015 400.513218 
L 532.876729 405.330065 
L 533.119443 405.003499 
L 533.362157 408.96311 
L 533.604872 406.350583 
L 533.847586 408.269158 
L 534.0903 411.902203 
L 534.333014 409.983629 
L 534.575729 412.473693 
L 534.818443 417.780389 
L 535.061157 416.392484 
L 536.032014 422.678877 
L 536.274728 420.352095 
L 536.760157 418.474341 
L 537.002871 418.025313 
L 537.973728 410.514298 
L 538.216442 410.881685 
L 538.459156 410.228553 
L 539.187299 406.309762 
L 539.430013 404.268726 
L 539.672727 404.554471 
L 540.40087 398.023153 
L 540.643584 400.06419 
L 540.886298 399.125313 
L 541.129013 394.961598 
L 541.371727 393.614514 
L 541.614441 397.696587 
L 541.857155 398.104795 
L 542.09987 396.267862 
L 542.342584 392.593996 
L 542.585298 390.797883 
L 542.828012 392.512354 
L 543.070726 389.001771 
L 543.313441 388.062894 
L 543.556155 389.981469 
L 543.798869 387.777149 
L 544.041583 386.879093 
L 544.284298 388.185356 
L 544.527012 388.266998 
L 544.769726 388.185356 
L 545.255154 392.26743 
L 545.497869 392.716458 
L 545.740583 394.839136 
L 545.983297 394.471749 
L 546.468726 400.676501 
L 546.71144 401.411274 
L 546.954154 404.064622 
L 547.196868 403.248207 
L 547.439582 406.840432 
L 547.682297 407.779309 
L 547.925011 410.432657 
L 548.167725 409.5346 
L 548.410439 412.636976 
L 548.653154 410.06527 
L 548.895868 409.820346 
L 549.138582 410.59594 
L 549.381296 407.575205 
L 549.62401 408.105875 
L 549.866725 406.105659 
L 550.109439 405.656631 
L 550.594867 403.248207 
L 550.837582 403.166566 
L 551.32301 398.676285 
L 551.565724 399.655983 
L 551.808438 395.369806 
L 552.293867 393.043024 
L 552.536581 394.920778 
L 552.779295 392.675637 
L 553.264724 394.390108 
L 553.507438 392.022505 
L 553.750152 390.961166 
L 553.992866 392.185788 
L 554.235581 391.001987 
L 554.478295 390.6346 
L 554.721009 386.838272 
L 554.963723 386.511706 
L 555.691866 380.5927 
L 555.93458 381.041728 
L 556.177294 383.246048 
L 556.420009 381.368294 
L 556.662723 382.103067 
L 556.905437 381.613218 
L 557.148151 381.449935 
L 557.390866 384.348207 
L 557.63358 385.246263 
L 557.876294 385.123801 
L 558.119008 386.756631 
L 558.361722 385.695292 
L 558.847151 392.104147 
L 559.089865 392.022505 
L 559.575294 395.982117 
L 560.060722 403.37067 
L 560.303436 401.901123 
L 560.546151 403.982981 
L 560.788865 407.534384 
L 561.031579 407.942592 
L 561.517007 405.248423 
L 561.759722 406.1873 
L 562.002436 404.146263 
L 562.487864 402.431793 
L 562.730579 399.860086 
L 562.973293 398.594644 
L 563.216007 399.166134 
L 563.458721 396.594428 
L 563.701435 396.308683 
L 563.94415 395.002419 
L 564.186864 394.553391 
L 564.429578 391.083629 
L 564.672292 390.961166 
L 564.915007 390.6346 
L 565.400435 388.96095 
L 565.643149 388.266998 
L 565.885863 384.633952 
L 566.371292 385.572829 
L 566.614006 381.776501 
L 566.85672 384.756415 
L 567.099435 381.286652 
L 567.342149 384.021641 
L 567.584863 380.837624 
L 567.827577 379.939568 
L 568.070291 381.041728 
L 568.313006 377.857711 
L 568.55572 379.898747 
L 568.798434 375.326825 
L 569.283863 376.592268 
L 569.526577 376.020778 
L 569.769291 376.469806 
L 570.012005 378.020994 
L 570.254719 381.898963 
L 570.497434 382.552095 
L 570.740148 381.449935 
L 570.982862 382.592916 
L 571.225576 388.756847 
L 571.468291 386.389244 
L 571.711005 385.817754 
L 571.953719 390.59378 
L 572.439147 393.165486 
L 572.924576 401.043888 
L 573.16729 402.023585 
L 573.410004 399.655983 
L 573.652719 401.125529 
L 573.895433 401.329633 
L 574.138147 400.59486 
L 574.380861 400.676501 
L 574.623575 399.084492 
L 574.86629 399.084492 
L 575.351718 394.390108 
L 575.594432 392.675637 
L 575.837147 392.104147 
L 576.322575 388.471102 
L 576.565289 389.328337 
L 577.050718 385.123801 
L 577.293432 387.654687 
L 577.536146 385.817754 
L 578.021575 384.51149 
L 578.264289 383.776717 
L 578.507003 383.776717 
L 578.749717 378.95987 
L 578.992431 381.286652 
L 579.720574 373.734816 
L 579.963288 376.71473 
L 580.206003 372.714298 
L 580.448717 371.16311 
L 580.691431 373.122505 
L 580.934145 367.611706 
L 581.17686 367.407603 
L 581.662288 368.632225 
L 581.905002 364.182765 
L 582.390431 370.346695 
L 582.633145 370.59162 
L 582.875859 371.571317 
L 583.118573 371.938704 
L 583.604002 375.449287 
L 583.846716 378.38838 
L 584.08943 383.654255 
L 584.332144 383.450151 
L 584.817573 386.348423 
L 585.303001 392.593996 
L 585.545716 391.981685 
L 585.78843 392.634816 
L 586.031144 396.431145 
L 586.273858 397.614946 
L 586.516572 398.227257 
L 586.759287 398.145616 
L 587.244715 394.757495 
L 587.487429 394.022721 
L 587.730144 390.961166 
L 587.972858 389.777365 
L 588.215572 390.59378 
L 588.458286 389.369158 
L 588.701 387.368942 
L 588.943715 386.593348 
L 589.429143 383.817538 
L 590.157286 380.347775 
L 590.4 379.857927 
L 590.642714 380.796803 
L 590.885428 380.429417 
L 591.370857 375.204363 
L 591.856285 378.265918 
L 592.341714 373.285788 
L 592.827142 370.754903 
L 593.069856 370.142592 
L 593.312571 368.428121 
L 593.555285 365.325745 
L 593.797999 367.366782 
L 594.040713 365.57067 
L 594.283428 365.407387 
L 594.526142 370.02013 
L 595.01157 363.284708 
L 595.254284 364.182765 
L 595.982427 370.632441 
L 596.225141 370.550799 
L 596.71057 379.123153 
L 596.953284 380.225313 
L 597.195998 384.756415 
L 597.438712 383.36851 
L 597.681427 383.40933 
L 597.924141 386.389244 
L 598.166855 387.409762 
L 598.409569 390.716242 
L 598.652284 390.185572 
L 598.894998 395.451447 
L 599.137712 393.900259 
L 599.380426 390.430497 
L 599.865855 391.900043 
L 600.108569 390.797883 
L 600.351283 390.59378 
L 600.593997 388.838488 
L 600.836712 389.369158 
L 601.079426 386.470886 
L 601.32214 386.18514 
L 601.564854 385.327905 
L 601.807569 383.205227 
L 602.050283 382.83784 
L 602.778425 376.71473 
L 603.02114 377.694428 
L 603.263854 377.939352 
L 603.506568 376.428985 
L 603.749282 378.102635 
L 603.991997 375.61257 
L 604.234711 375.081901 
L 604.477425 373.775637 
L 604.720139 370.877365 
L 604.962853 370.346695 
L 605.205568 371.938704 
L 605.448282 368.999611 
L 605.690996 367.693348 
L 605.93371 368.91797 
L 606.419139 364.182765 
L 606.661853 365.856415 
L 606.904567 365.203283 
L 607.147281 361.447775 
L 607.389996 361.774341 
L 607.63271 362.876501 
L 607.875424 365.162462 
L 608.118138 364.631793 
L 608.360853 366.999395 
L 608.603567 367.734168 
L 608.846281 372.79594 
L 609.331709 372.020346 
L 609.574424 377.776069 
L 609.817138 378.470022 
L 610.059852 381.082549 
L 610.302566 380.796803 
L 610.545281 385.082981 
L 610.787995 385.817754 
L 611.030709 387.532225 
L 611.273423 391.900043 
L 611.516137 389.532441 
L 611.758852 389.328337 
L 612.001566 389.573261 
L 612.24428 389.287516 
L 612.486994 388.756847 
L 612.729709 386.919914 
L 612.972423 387.205659 
L 614.185994 379.49054 
L 614.428708 378.429201 
L 615.156851 371.816242 
L 615.399565 371.897883 
L 615.642279 370.632441 
L 615.884993 371.040648 
L 616.127708 369.203715 
L 616.370422 370.387516 
L 616.613136 369.897667 
L 616.85585 368.224017 
L 617.098565 365.693132 
L 617.341279 369.244536 
L 617.826707 362.223369 
L 618.069421 360.835464 
L 618.312136 361.447775 
L 618.55485 360.05987 
L 618.797564 359.855767 
L 619.040278 358.712786 
L 619.282993 354.998099 
L 619.525707 357.528985 
L 619.768421 358.38622 
L 620.011135 356.916674 
L 620.253849 356.386004 
L 620.496564 359.937408 
L 620.739278 359.814946 
L 620.981992 360.386436 
L 621.224706 361.325313 
L 622.195563 368.264838 
L 622.438278 369.040432 
L 622.923706 374.306307 
L 623.16642 373.857279 
L 623.409134 378.91905 
L 623.894563 378.592484 
L 624.137277 382.715378 
L 624.379991 382.511274 
L 624.622706 382.715378 
L 625.350848 378.878229 
L 625.593562 377.980173 
L 626.078991 374.755335 
L 626.321705 372.591836 
L 626.564419 371.857063 
L 626.807134 370.550799 
L 627.049848 367.693348 
L 627.292562 367.203499 
L 627.535276 367.611706 
L 627.77799 366.101339 
L 628.020705 365.448207 
L 628.263419 362.998963 
L 628.506133 363.652095 
L 628.748847 363.978661 
L 629.234276 359.692484 
L 629.47699 360.549719 
L 629.719704 358.590324 
L 629.962418 355.120562 
L 630.205133 359.080173 
L 630.447847 360.05987 
L 630.690561 355.936976 
L 630.933275 348.589244 
L 631.17599 350.05879 
L 631.418704 350.466998 
L 631.661418 352.303931 
L 631.904132 349.4873 
L 632.146846 350.875205 
L 632.389561 347.323801 
L 632.632275 347.038056 
L 632.874989 349.936328 
L 633.117703 348.099395 
L 633.603132 352.018186 
L 633.845846 352.630497 
L 634.816703 357.651447 
L 635.302131 362.26419 
L 635.544846 367.325961 
L 635.78756 369.326177 
L 636.030274 366.958575 
L 636.272988 374.796156 
L 636.515702 370.183413 
L 636.758417 369.856847 
L 637.001131 371.408035 
L 637.243845 374.020562 
L 637.486559 373.653175 
L 637.729274 373.857279 
L 637.971988 372.061166 
L 638.214702 371.285572 
L 638.457416 367.366782 
L 640.156416 360.427257 
L 640.39913 356.998315 
L 640.641844 356.671749 
L 640.884559 355.651231 
L 641.369987 354.957279 
L 641.855415 351.283413 
L 642.09813 351.773261 
L 642.340844 347.609546 
L 642.826272 349.079093 
L 643.311701 345.527689 
L 643.554415 346.303283 
L 644.039843 344.058143 
L 644.282558 346.058359 
L 644.525272 343.078445 
L 644.767986 343.93568 
L 645.253415 340.58838 
L 645.496129 341.853823 
L 645.738843 344.180605 
L 645.981557 342.833521 
L 646.224271 342.506955 
L 646.466986 343.609114 
L 646.7097 346.466566 
L 646.952414 346.915594 
L 647.680557 352.426393 
L 647.923271 356.753391 
L 648.165985 355.447127 
L 648.651414 360.549719 
L 648.894128 360.672181 
L 649.136842 364.590972 
L 649.379556 364.754255 
L 649.622271 367.734168 
L 649.864985 367.897451 
L 650.107699 366.264622 
L 650.350413 365.978877 
L 650.593127 364.550151 
L 650.835842 364.550151 
L 651.078556 364.264406 
L 651.32127 361.855983 
L 651.563984 360.753823 
L 651.806699 358.91689 
L 652.049413 358.263758 
L 652.534841 353.038704 
L 652.777555 353.89594 
L 653.02027 353.283629 
L 653.262984 351.936544 
L 653.505698 351.732441 
L 653.748412 351.079309 
L 653.991127 349.650583 
L 654.233841 350.58946 
L 654.476555 346.874773 
L 654.719269 347.568726 
L 655.204698 345.60933 
L 655.447412 346.997235 
L 655.690126 346.874773 
L 656.660983 338.465702 
L 656.903697 336.66959 
L 657.146411 336.261382 
L 657.389126 336.383844 
L 657.63184 336.220562 
L 657.874554 335.281685 
L 658.602697 340.629201 
L 659.088125 341.363974 
L 659.330839 342.874341 
L 659.573554 343.160086 
L 660.544411 350.099611 
L 660.787125 350.222073 
L 661.029839 353.201987 
L 661.272553 357.773909 
L 661.515268 357.161598 
L 661.757982 361.12121 
L 662.000696 362.876501 
L 662.24341 363.611274 
L 662.486124 364.713434 
L 662.728839 361.733521 
L 662.971553 361.937624 
L 663.214267 359.570022 
L 663.456981 359.325097 
L 663.94241 354.998099 
L 664.185124 355.528769 
L 664.913267 347.732009 
L 665.155981 347.81365 
L 665.398695 346.507387 
L 665.641409 343.160086 
L 665.884124 342.547775 
L 666.369552 342.098747 
L 666.612266 341.976285 
L 667.097695 339.200475 
L 667.340409 341.404795 
L 667.583123 339.118834 
L 667.825837 333.89378 
L 668.311266 336.751231 
L 668.796694 328.954471 
L 669.039408 328.464622 
L 669.282123 328.505443 
L 669.524837 331.077149 
L 669.767551 327.607387 
L 670.010265 326.505227 
L 670.495694 329.199395 
L 670.738408 324.505011 
L 670.981122 324.341728 
L 671.223836 325.525529 
L 671.709265 329.076933 
L 671.951979 329.811706 
L 672.194693 331.077149 
L 672.437408 333.159006 
L 672.680122 332.628337 
L 672.922836 333.852959 
L 673.408264 337.526825 
L 673.650979 340.874125 
L 673.893693 340.914946 
L 674.136407 346.548207 
L 674.379121 344.547991 
L 674.86455 349.609762 
L 675.107264 349.201555 
L 675.349978 347.527905 
L 675.592692 346.874773 
L 675.835407 345.690972 
L 676.078121 345.56851 
L 676.320835 344.711274 
L 678.262549 333.771317 
L 678.747977 331.771102 
L 678.990692 332.056847 
L 679.233406 329.893348 
L 679.47612 326.13784 
L 679.718834 326.382765 
L 679.961548 327.566566 
L 680.204263 326.954255 
L 680.689691 330.709762 
L 680.932405 324.790756 
L 681.417834 320.422937 
L 681.903262 316.585788 
L 682.388691 321.770022 
L 682.874119 317.647127 
L 683.359548 319.44324 
L 683.602262 321.402635 
L 683.844976 319.075853 
L 684.330405 323.198747 
L 684.573119 323.198747 
L 684.815833 325.158143 
L 685.058547 322.463974 
L 685.543976 328.546263 
L 685.78669 333.36311 
L 686.029404 332.669158 
L 686.272118 336.261382 
L 686.757547 338.710626 
L 687.000261 346.67067 
L 687.485689 342.425313 
L 687.728404 344.547991 
L 687.971118 344.997019 
L 688.213832 342.996803 
L 688.456546 343.690756 
L 688.699261 340.58838 
L 688.941975 340.139352 
L 689.427403 336.302203 
L 689.670117 336.343024 
L 690.39826 330.791404 
L 690.640974 330.995508 
L 690.883689 330.097451 
L 691.126403 328.178877 
L 691.369117 328.627905 
L 691.611831 326.627689 
L 691.854545 323.32121 
L 692.09726 325.688812 
L 692.339974 326.382765 
L 692.582688 324.423369 
L 692.825402 325.280605 
L 693.068117 324.627473 
L 693.310831 322.586436 
L 693.553545 322.668078 
L 693.796259 319.035032 
L 694.038973 319.524881 
L 694.281688 318.790108 
L 694.524402 315.646911 
L 694.767116 315.238704 
L 695.00983 314.46311 
L 695.252545 317.443024 
L 695.495259 317.483844 
L 695.737973 315.56527 
L 695.980687 314.830497 
L 696.223401 315.238704 
L 696.466116 314.952959 
L 696.70883 316.055119 
L 696.951544 315.606091 
L 697.436973 319.116674 
L 697.679687 322.341512 
L 697.922401 321.851663 
L 698.165115 323.647775 
L 698.407829 326.70933 
L 698.650544 327.689028 
L 698.893258 329.321857 
L 699.378686 334.261166 
L 699.621401 334.138704 
L 700.106829 337.935032 
L 700.349543 337.975853 
L 700.592258 337.159438 
L 700.834972 337.649287 
L 701.077686 336.302203 
L 701.3204 336.13892 
L 701.563114 333.403931 
L 702.048543 330.750583 
L 702.291257 328.097235 
L 702.533971 329.48514 
L 703.0194 324.055983 
L 703.262114 325.443888 
L 703.747542 323.402851 
L 703.990257 323.239568 
L 704.232971 321.565918 
L 704.475685 322.627257 
L 704.961114 317.075637 
L 705.203828 317.76959 
L 705.446542 315.56527 
L 705.689256 317.565486 
L 705.93197 313.442592 
L 706.174685 313.565054 
L 706.417399 313.932441 
L 706.660113 314.952959 
L 706.902827 314.095724 
L 707.145542 311.483197 
L 707.388256 311.401555 
L 707.63097 310.054471 
L 707.873684 311.11581 
L 708.116398 307.360302 
L 708.359113 306.339784 
L 708.601827 307.278661 
L 708.844541 306.462246 
L 709.087255 306.66635 
L 709.32997 309.646263 
L 709.572684 310.830065 
L 709.815398 310.58514 
L 710.058112 311.156631 
L 710.543541 316.830713 
L 710.786255 317.443024 
L 711.514398 324.219266 
L 711.999826 326.464406 
L 712.24254 328.668726 
L 712.727969 330.424017 
L 712.970683 332.750799 
L 713.213397 332.954903 
L 713.456111 331.444536 
L 713.698826 332.26095 
L 714.184254 327.403283 
L 714.426968 327.607387 
L 714.669682 326.954255 
L 715.155111 321.198531 
L 715.397825 320.912786 
L 715.883254 317.524665 
L 716.368682 316.177581 
L 716.85411 313.769158 
L 717.096825 310.58514 
L 717.339539 312.952743 
L 717.582253 311.360734 
L 717.824967 311.034168 
L 718.067682 311.401555 
L 718.310396 309.115594 
L 718.55311 309.564622 
L 718.795824 308.829849 
L 719.038538 309.238056 
L 719.281253 308.666566 
L 719.523967 305.441728 
L 719.766681 304.625313 
L 720.009395 304.42121 
L 720.494824 300.624881 
L 720.737538 299.359438 
L 720.980252 302.747559 
L 721.222967 301.563758 
L 721.465681 298.787948 
L 721.951109 299.849287 
L 722.193823 302.053607 
L 722.436538 300.502419 
L 722.679252 304.706955 
L 722.921966 304.094644 
L 723.650109 310.054471 
L 723.892823 310.993348 
L 724.378251 318.749287 
L 724.620966 319.402419 
L 724.86368 322.463974 
L 725.106394 317.279741 
L 725.349108 318.218618 
L 725.834537 323.076285 
L 726.077251 324.260086 
L 726.319965 322.79054 
L 726.562679 318.626825 
L 726.805394 321.157711 
L 727.048108 316.13676 
L 727.290822 316.626609 
L 727.776251 311.973045 
L 728.018965 312.136328 
L 728.261679 309.401339 
L 728.504393 308.91149 
L 728.989822 304.176285 
L 729.232536 304.625313 
L 729.47525 304.747775 
L 729.717964 303.278229 
L 729.960679 302.992484 
L 730.203393 301.604579 
L 730.446107 303.31905 
L 730.931535 296.991836 
L 731.17425 299.196156 
L 731.416964 298.91041 
L 731.659678 299.44108 
L 732.145107 295.114082 
L 732.387821 295.154903 
L 732.630535 293.154687 
L 732.873249 289.848207 
L 733.115963 288.419482 
L 733.358678 289.848207 
L 733.601392 292.379093 
L 733.844106 287.072397 
L 734.08682 287.398963 
L 734.329535 289.113434 
L 734.572249 288.664406 
L 735.057677 292.950583 
L 735.300391 290.868726 
L 735.543106 296.66527 
L 735.78582 294.134384 
L 736.028534 295.56311 
L 736.999391 306.339784 
L 737.242105 304.666134 
L 737.484819 308.707387 
L 737.970248 311.646479 
L 738.212962 310.340216 
L 738.455676 310.54432 
L 738.698391 311.197451 
L 739.669247 308.625745 
L 739.911962 307.564406 
L 740.39739 301.6454 
L 740.640104 303.645616 
L 740.882819 304.666134 
L 741.125533 297.808251 
L 741.368247 298.216458 
L 741.610961 296.66527 
L 741.853676 297.726609 
L 742.09639 297.726609 
L 742.339104 294.297667 
L 742.824532 292.338272 
L 743.067247 292.419914 
L 743.309961 294.338488 
L 744.038104 290.052311 
L 744.280818 284.541512 
L 744.523532 288.33784 
L 744.766246 288.215378 
L 745.00896 281.724881 
L 745.251675 280.418618 
L 745.737103 279.193996 
L 745.979817 280.949287 
L 746.222532 277.846911 
L 746.465246 280.01041 
L 746.70796 280.745184 
L 746.950674 279.398099 
L 747.193388 283.643456 
L 747.436103 282.092268 
L 747.678817 284.949719 
L 747.921531 285.888596 
L 748.649674 292.950583 
L 748.892388 294.338488 
L 749.135102 292.868942 
L 749.620531 299.073693 
L 749.863245 299.645184 
L 750.348673 307.278661 
L 750.591388 304.257927 
L 751.076816 307.360302 
L 751.31953 306.503067 
L 751.562244 306.747991 
L 751.804959 306.339784 
L 752.290387 302.380173 
L 752.533101 302.21689 
L 752.775816 297.849071 
L 753.01853 296.501987 
L 753.261244 297.849071 
L 753.503958 293.930281 
L 753.746672 292.7873 
L 754.232101 291.521857 
L 754.474815 289.97067 
L 754.960244 288.746048 
L 755.202958 288.827689 
L 755.9311 284.868078 
L 756.173815 281.030929 
L 757.387386 279.643024 
L 757.6301 273.519914 
L 757.872814 272.78514 
L 758.115528 276.459006 
L 758.358243 273.479093 
L 758.600957 272.254471 
L 758.843671 275.805875 
L 759.086385 271.64216 
L 759.3291 273.234168 
L 759.571814 271.438056 
L 759.814528 272.336112 
L 760.057242 272.540216 
L 760.299957 273.31581 
L 760.542671 275.928337 
L 761.270813 279.398099 
L 761.513528 280.54108 
L 762.727099 291.399395 
L 762.969813 290.868726 
L 763.212527 296.991836 
L 763.697956 298.502203 
L 763.94067 296.951015 
L 764.183384 296.501987 
L 764.426098 293.766998 
L 764.668813 292.950583 
L 764.911527 293.236328 
L 765.639669 287.113218 
L 765.882384 286.990756 
L 766.367812 281.602419 
L 766.610526 281.64324 
L 766.853241 281.439136 
L 767.095955 280.214514 
L 767.338669 276.744752 
L 767.824097 275.56095 
L 768.066812 275.969158 
L 768.309526 273.683197 
L 769.037669 274.377149 
L 769.280383 272.21365 
L 769.765811 270.784924 
L 770.008525 271.601339 
L 770.25124 269.886868 
L 770.493954 262.988164 
L 770.979382 262.74324 
L 771.222097 263.110626 
L 771.464811 261.926825 
L 771.707525 262.090108 
L 771.950239 260.171533 
L 772.192953 264.41689 
L 772.435668 264.457711 
L 772.678382 264.376069 
L 772.921096 265.396587 
L 773.406525 269.723585 
L 773.649239 270.621641 
L 773.891953 276.785572 
L 774.134667 274.581253 
L 774.620096 277.030497 
L 775.105524 281.153391 
L 775.590953 283.970022 
L 775.833667 287.439784 
L 776.076381 286.909114 
L 776.319095 288.133737 
L 776.561809 286.0927 
L 776.804524 286.949935 
L 777.047238 285.480389 
L 777.289952 285.153823 
L 777.532666 283.725097 
L 778.018095 282.7454 
L 778.260809 282.051447 
L 778.503523 276.173261 
L 778.746237 276.622289 
L 779.231666 274.622073 
L 779.47438 273.968942 
L 779.717094 274.785356 
L 779.959809 271.193132 
L 780.202523 272.376933 
L 780.445237 274.45879 
L 781.416094 264.743456 
L 781.658808 266.62121 
L 782.144237 267.111058 
L 782.629665 261.722721 
L 782.872379 257.76311 
L 783.115094 259.681685 
L 783.600522 253.395292 
L 784.08595 258.089676 
L 784.328665 255.273045 
L 784.571379 257.354903 
L 784.814093 253.681037 
L 785.299522 256.538488 
L 785.542236 256.293564 
L 785.78495 261.763542 
L 786.027664 262.171749 
L 786.270378 261.886004 
L 786.513093 262.579957 
L 787.48395 274.948639 
L 787.726664 275.438488 
L 787.969378 275.152743 
L 788.212092 275.071102 
L 788.454806 278.949071 
L 788.697521 278.908251 
L 788.940235 278.173477 
L 789.425663 279.193996 
L 789.668378 279.193996 
L 790.39652 274.785356 
L 790.639234 274.132225 
L 791.124663 270.090972 
L 791.367377 270.131793 
L 791.852806 266.498747 
L 792.338234 265.478229 
L 792.580948 264.171965 
L 792.823662 263.967862 
L 793.309091 257.232441 
L 793.551805 256.701771 
L 793.794519 258.620346 
L 794.037234 259.191836 
L 794.522662 262.049287 
L 794.765376 257.967214 
L 795.00809 258.946911 
L 795.493519 254.619914 
L 795.736233 249.313218 
L 795.978947 257.885572 
L 796.221662 255.926177 
L 796.464376 252.619698 
L 796.70709 253.640216 
L 796.949804 245.639352 
L 797.192518 245.884276 
L 797.435233 247.108898 
L 797.677947 247.313002 
L 798.40609 251.190972 
L 798.648804 248.86419 
L 799.134232 257.028337 
L 799.376946 258.579525 
L 799.619661 257.640648 
L 799.862375 261.967646 
L 800.105089 262.865702 
L 800.347803 266.049719 
L 800.833232 269.070454 
L 801.075946 268.988812 
L 801.31866 268.254039 
L 801.561375 269.805227 
L 801.804089 270.050151 
L 802.046803 271.11149 
L 802.289517 270.866566 
L 802.532231 269.886868 
L 802.774946 269.96851 
L 803.01766 267.233521 
L 803.260374 267.233521 
L 803.745803 264.335248 
L 803.988517 263.763758 
L 804.231231 262.457495 
L 804.473945 261.967646 
L 804.716659 260.947127 
L 804.959374 258.29378 
L 805.202088 257.436544 
L 805.444802 255.273045 
L 805.687516 254.864838 
L 805.930231 253.191188 
L 806.172945 252.333952 
L 806.415659 255.354687 
L 806.658373 251.558359 
L 806.901087 251.721641 
L 807.143802 251.395076 
L 807.386516 247.068078 
L 807.62923 246.65987 
L 807.871944 247.517106 
L 808.114659 244.496371 
L 808.357373 243.598315 
L 808.600087 242.21041 
L 808.842801 246.537408 
L 809.085515 239.638704 
L 809.570944 241.598099 
L 810.056372 238.005875 
L 810.299087 243.761598 
L 810.541801 239.230497 
L 810.784515 241.06743 
L 811.027229 245.639352 
L 811.269943 246.333305 
L 811.512658 248.006955 
L 811.755372 246.496587 
L 812.2408 251.395076 
L 812.483515 252.701339 
L 812.726229 254.701555 
L 812.968943 260.416458 
L 813.211657 257.19162 
L 813.697086 260.293996 
L 813.9398 263.600475 
L 814.182514 263.110626 
L 814.425228 263.478013 
L 814.667943 267.927473 
L 814.910657 264.41689 
L 815.638799 260.743024 
L 816.609656 254.374989 
L 816.852371 253.640216 
L 817.095085 254.048423 
L 817.337799 249.027473 
L 817.823227 247.517106 
L 818.065942 248.496803 
L 818.308656 246.374125 
L 818.55137 246.782333 
L 818.794084 244.9454 
L 819.036799 237.271102 
L 819.279513 241.924665 
L 819.522227 237.597667 
L 819.764941 243.557495 
L 820.007656 236.61797 
L 820.493084 234.658575 
L 820.735798 240.659222 
L 820.978512 236.291404 
L 821.221227 234.454471 
L 821.463941 227.637408 
L 821.706655 227.637408 
L 821.949369 228.739568 
L 822.192084 228.82121 
L 822.434798 228.168078 
L 822.677512 226.453607 
L 822.920226 228.617106 
L 823.16294 228.372181 
L 823.648369 233.882981 
L 823.891083 234.98514 
L 824.133797 236.822073 
L 824.376512 240.128553 
L 824.619226 241.353175 
L 824.86194 240.49594 
L 825.347368 244.822937 
L 825.590083 246.047559 
L 826.318225 253.599395 
L 826.56094 253.84432 
L 826.803654 253.354471 
L 827.289082 254.252527 
L 827.531796 253.31365 
L 827.774511 253.109546 
L 828.017225 249.884708 
L 828.259939 249.96635 
L 828.502653 249.272397 
L 828.745368 248.006955 
L 829.230796 242.577797 
L 829.47351 241.434816 
L 829.958939 242.618618 
L 830.444367 238.86311 
L 830.687081 234.332009 
L 830.929796 236.577149 
L 831.17251 235.801555 
L 831.415224 232.74 
L 831.657938 233.148207 
L 831.900652 234.699395 
L 832.143367 233.433952 
L 832.386081 230.658143 
L 832.628795 234.372829 
L 832.871509 232.984924 
L 833.114224 230.943888 
L 833.356938 224.086004 
L 833.842366 229.800907 
L 834.08508 225.637192 
L 834.327795 227.71905 
L 834.570509 226.208683 
L 834.813223 227.147559 
L 835.055937 225.147343 
L 835.298652 219.922289 
L 836.026794 226.861814 
L 836.269508 224.820778 
L 836.512223 227.065918 
L 836.754937 227.310842 
L 836.997651 226.08622 
L 837.240365 230.045832 
L 837.48308 236.209762 
L 837.725794 233.597235 
L 837.968508 237.76095 
L 838.211222 238.699827 
L 838.696651 243.31257 
L 838.939365 243.965702 
L 839.424793 244.333089 
L 839.667508 245.51689 
L 839.910222 245.312786 
L 840.152936 246.006739 
L 840.638365 244.496371 
L 842.337364 233.84216 
L 842.580078 231.63784 
L 842.822793 232.290972 
L 843.065507 231.556199 
L 843.550935 226.0454 
L 843.793649 228.372181 
L 844.036364 228.413002 
L 844.279078 230.862246 
L 844.521792 226.698531 
L 844.764506 224.535032 
L 845.007221 225.963758 
L 845.249935 223.718618 
L 845.492649 226.943456 
L 845.735363 221.146911 
L 845.978077 219.677365 
L 846.220792 220.697883 
L 846.463506 214.37067 
L 846.70622 214.656415 
L 847.191649 213.350151 
L 847.434363 211.758143 
L 847.677077 210.941728 
L 847.919791 213.880821 
L 848.40522 216.04432 
L 848.647934 216.08514 
L 849.133362 217.268942 
L 849.376077 218.575205 
L 849.618791 220.861166 
L 850.104219 222.943024 
L 850.346933 226.004579 
L 850.589648 226.861814 
L 851.075076 231.311274 
L 851.31779 233.801339 
L 851.560505 232.658359 
L 851.803219 236.61797 
L 852.045933 236.536328 
L 852.531361 236.699611 
L 853.259504 235.474989 
L 853.502218 234.740216 
L 853.744933 233.556415 
L 854.230361 226.739352 
L 854.473075 226.984276 
L 854.715789 225.963758 
L 855.443932 220.942808 
L 855.686646 221.840864 
L 855.929361 220.289676 
L 856.414789 215.309546 
L 856.657503 217.636328 
L 856.900217 214.574773 
L 857.142932 214.289028 
L 857.385646 210.778445 
L 857.62836 212.574557 
L 857.871074 211.513218 
L 858.113789 213.554255 
L 858.356503 211.06419 
L 858.599217 211.227473 
L 858.841931 206.369806 
L 859.084645 207.798531 
L 859.32736 210.329417 
L 859.570074 204.859438 
L 859.812788 202.532657 
L 860.055502 201.308035 
L 860.298217 200.777365 
L 860.783645 198.981253 
L 861.269074 204.287948 
L 861.511788 205.675853 
L 861.754502 206.002419 
L 861.997216 205.390108 
L 862.23993 209.839568 
L 862.482645 210.125313 
L 862.725359 212.778661 
L 862.968073 212.207171 
L 863.210787 213.717538 
L 863.453502 218.044536 
L 863.696216 219.309978 
L 864.667073 227.433305 
L 864.909787 226.290324 
L 865.152501 227.555767 
L 865.395215 226.576069 
L 865.63793 226.331145 
L 865.880644 224.657495 
L 866.366072 222.779741 
L 866.608786 219.269158 
L 866.851501 220.901987 
L 867.094215 217.595508 
L 867.336929 215.962678 
L 867.822358 214.084924 
L 868.065072 210.900907 
L 868.5505 208.451663 
L 868.793214 208.778229 
L 869.035929 207.512786 
L 869.278643 209.023153 
L 869.521357 207.961814 
L 869.764071 208.125097 
L 870.006786 208.900691 
L 870.2495 207.063758 
L 870.492214 208.329201 
L 870.734928 204.41041 
L 870.977642 197.021857 
L 871.220357 201.348855 
L 871.705785 194.36851 
L 871.948499 194.817538 
L 872.433928 193.960302 
L 872.676642 192.69486 
L 872.919356 193.633737 
L 873.16207 190.857927 
L 873.404785 193.919482 
L 873.647499 191.102851 
L 873.890213 193.470454 
L 874.132927 194.450151 
L 874.375642 194.817538 
L 875.589213 208.574125 
L 875.831927 208.574125 
L 876.802784 214.656415 
L 877.045498 214.738056 
L 877.288212 221.106091 
L 877.530926 218.942592 
L 877.773641 218.003715 
L 878.016355 217.922073 
L 878.259069 218.28946 
L 878.744498 216.534168 
L 879.229926 212.492916 
L 879.47264 210.696803 
L 879.715355 211.105011 
L 879.958069 207.553607 
L 880.200783 206.941296 
L 880.443497 204.206307 
L 880.686211 203.512354 
L 880.928926 203.83892 
L 881.17164 200.124233 
L 881.414354 200.369158 
L 881.657068 200.940648 
L 882.142497 199.062894 
L 882.385211 199.797667 
L 882.627925 199.266998 
L 882.870639 198.368942 
L 883.356068 193.225529 
L 883.598782 192.531577 
L 883.841496 196.654471 
L 884.084211 189.633305 
L 884.326925 188.653607 
L 884.569639 184.000043 
L 884.812353 184.36743 
L 885.055067 186.898315 
L 885.297782 183.83676 
L 885.540496 183.79594 
L 885.78321 182.897883 
L 886.025924 184.775637 
L 886.268639 184.93892 
L 886.511353 186.408467 
L 886.754067 189.38838 
L 886.996781 189.755767 
L 887.239495 190.857927 
L 887.48221 191.306955 
L 887.967638 196.327905 
L 888.210352 195.225745 
L 888.453067 205.635032 
L 888.695781 203.716458 
L 889.181209 204.451231 
L 889.423923 205.390108 
L 889.666638 208.002635 
L 889.909352 212.329633 
L 890.152066 210.411058 
L 890.39478 211.023369 
L 890.637495 209.717106 
L 890.880209 206.573909 
L 891.122923 206.165702 
L 891.365637 206.900475 
L 891.608351 205.104363 
L 891.851066 202.410194 
L 892.09378 197.430065 
L 892.336494 198.777149 
L 892.579208 197.103499 
L 892.821923 196.776933 
L 893.064637 190.694644 
L 893.307351 191.02121 
L 893.550065 192.286652 
L 893.792779 191.306955 
L 894.035494 191.388596 
L 894.520922 187.347343 
L 894.763636 189.184276 
L 895.006351 180.122073 
L 895.249065 187.306523 
L 895.491779 181.795724 
L 895.734493 184.163326 
L 895.977207 184.040864 
L 896.462636 180.040432 
L 896.70535 175.346048 
L 896.948064 177.264622 
L 897.190779 165.589892 
L 897.676207 169.141296 
L 897.918921 168.488164 
L 898.161635 169.835248 
L 898.40435 169.631145 
L 898.647064 170.202635 
L 898.889778 168.120778 
L 899.375207 171.917106 
L 899.617921 171.835464 
L 900.346064 180.326177 
L 900.588778 185.755335 
L 900.831492 185.306307 
L 901.074206 185.143024 
L 901.31692 187.306523 
L 901.559635 191.837624 
L 902.045063 194.776717 
L 902.287777 195.225745 
L 902.530492 195.919698 
L 902.773206 195.47067 
L 903.01592 197.021857 
L 903.258634 197.14432 
L 903.744063 193.552095 
L 903.986777 193.021425 
L 904.229491 190.898747 
L 904.472205 187.633089 
L 904.71492 187.796371 
L 905.200348 182.367214 
L 905.443062 183.510194 
L 905.685776 183.020346 
L 905.928491 181.550799 
L 906.171205 181.469158 
L 906.656633 176.244104 
L 906.899348 176.448207 
L 907.142062 174.488812 
L 907.384776 174.570454 
L 907.870204 175.917538 
L 908.112919 175.305227 
L 908.355633 167.590108 
L 908.598347 171.672181 
L 908.841061 173.79486 
L 909.083776 173.019266 
L 909.569204 165.100043 
L 909.811918 171.100691 
L 910.054632 163.26311 
L 910.297347 160.119914 
L 910.540061 163.508035 
L 911.025489 160.364838 
L 911.268204 158.936112 
L 911.753632 161.01797 
L 911.996346 161.222073 
L 912.23906 164.773477 
L 912.481775 166.03892 
L 912.724489 168.81473 
L 912.967203 169.141296 
L 913.452632 172.855983 
L 913.695346 173.917322 
L 914.423488 180.366998 
L 914.908917 183.714298 
L 915.151631 186.653391 
L 915.394345 186.449287 
L 915.63706 188.449503 
L 915.879774 189.38838 
L 916.607916 183.959222 
L 916.850631 183.142808 
L 917.093345 183.020346 
L 917.336059 182.040648 
L 917.821488 174.570454 
L 918.064202 172.570238 
L 918.306916 175.346048 
L 918.54963 173.958143 
L 918.792344 171.672181 
L 919.035059 170.937408 
L 919.277773 168.039136 
L 919.763201 166.732873 
L 920.005916 167.630929 
L 920.24863 169.467862 
L 920.491344 164.569374 
L 920.734058 166.03892 
L 921.219487 163.589676 
L 921.462201 161.385356 
L 921.704915 164.528553 
L 921.947629 160.4873 
L 922.190344 160.854687 
L 922.433058 162.079309 
L 922.675772 159.262678 
L 922.918486 154.119266 
L 923.403915 160.732225 
L 923.646629 152.731361 
L 923.889343 153.874341 
L 924.132057 152.282333 
L 924.374772 154.976501 
L 924.617486 154.568294 
L 924.8602 157.344104 
L 925.102914 156.282765 
L 925.831057 163.385572 
L 926.5592 170.447559 
L 926.801914 170.733305 
L 927.044628 171.59054 
L 927.772771 177.509546 
L 928.015485 177.672829 
L 928.258199 177.223801 
L 928.500913 177.795292 
L 928.743628 177.71365 
L 928.986342 176.366566 
L 929.229056 174.284708 
L 929.47177 173.917322 
L 929.714485 172.611058 
L 929.957199 169.100475 
L 930.199913 163.344752 
L 930.442627 165.916458 
L 930.685341 165.549071 
L 930.928056 164.079525 
L 931.17077 161.426177 
L 931.413484 160.773045 
L 931.656198 162.69162 
L 931.898913 158.323801 
L 932.141627 160.773045 
L 932.384341 150.282117 
L 932.627055 155.956199 
L 932.869769 155.792916 
L 933.112484 151.057711 
L 933.597912 153.670238 
L 933.840626 151.220994 
L 934.083341 150.48622 
L 934.326055 148.118618 
L 934.568769 156.60933 
L 934.811483 150.567862 
L 935.054197 148.894212 
L 935.539626 143.546695 
L 935.78234 142.15879 
L 936.025054 141.750583 
L 936.267769 139.464622 
L 936.510483 138.933952 
L 936.995911 142.444536 
L 937.238625 141.505659 
L 937.48134 143.995724 
L 937.724054 144.608035 
L 937.966768 145.914298 
L 938.452197 150.200475 
L 938.694911 152.486436 
L 938.937625 158.24216 
L 939.180339 157.589028 
L 939.423054 157.71149 
L 940.636625 165.385788 
L 940.879339 165.793996 
L 941.364767 167.875853 
L 941.607482 165.344968 
L 941.850196 164.651015 
L 942.09291 164.610194 
L 942.335624 160.242376 
L 942.578338 159.058575 
L 942.821053 159.793348 
L 943.549195 154.486652 
L 943.79191 152.894644 
L 944.277338 148.649287 
L 944.520052 146.649071 
L 944.762766 145.832657 
L 945.248195 145.791836 
L 945.733623 139.91365 
L 945.976338 144.199827 
L 946.219052 142.485356 
L 946.461766 143.628337 
L 946.70448 143.424233 
L 947.189909 140.730065 
L 947.432623 136.933737 
L 947.675337 136.770454 
L 947.918051 133.178229 
L 948.160766 132.68838 
L 948.40348 135.872397 
L 948.646194 130.279957 
L 948.888908 131.463758 
L 949.131622 131.504579 
L 949.374337 129.136976 
L 949.617051 130.279957 
L 949.859765 133.137408 
L 950.102479 133.096587 
L 950.587908 135.423369 
L 950.830622 138.444104 
L 951.073336 139.546263 
L 951.558765 144.852959 
L 951.801479 145.669374 
L 952.044193 147.996156 
L 952.286907 148.445184 
L 952.772336 152.323153 
L 953.01505 153.343672 
L 953.257764 153.874341 
L 953.500478 154.93568 
L 953.743193 155.425529 
L 953.985907 155.547991 
L 954.228621 155.058143 
L 954.471335 154.93568 
L 955.442192 148.690108 
L 955.684906 147.547127 
L 955.927621 141.954687 
L 956.170335 147.13892 
L 957.141192 138.158359 
L 957.383906 139.668726 
L 957.62662 139.587084 
L 958.112049 136.198963 
L 958.354763 131.178013 
L 958.840191 134.280389 
L 959.082906 133.137408 
L 959.32562 128.851231 
L 959.568334 132.729201 
L 959.811048 126.932657 
L 960.053763 133.178229 
L 960.539191 122.564838 
L 960.781905 128.116458 
L 961.267334 120.033952 
L 961.510048 126.075421 
L 961.752762 122.605659 
L 961.995476 126.810194 
L 962.238191 120.605443 
L 962.480905 120.768726 
L 963.209047 127.422505 
L 963.451762 127.871533 
L 963.694476 130.48406 
L 963.93719 131.178013 
L 964.422619 139.138056 
L 964.665333 140.525961 
L 964.908047 140.281037 
L 965.150761 141.179093 
L 965.393475 148.24108 
L 965.63619 148.853391 
L 965.878904 146.281685 
L 966.121618 146.689892 
L 966.607047 146.893996 
L 967.092475 143.22013 
L 967.577903 144.403931 
L 968.063332 139.91365 
L 968.306046 139.546263 
L 968.54876 136.607171 
L 969.034189 135.219266 
L 969.519617 129.34108 
L 969.762331 130.157495 
L 970.005046 129.259438 
L 970.24776 126.646911 
L 970.490474 125.381469 
L 970.733188 122.360734 
L 970.975903 123.748639 
L 971.218617 123.054687 
L 971.461331 123.422073 
L 971.704045 120.44216 
L 971.946759 125.259006 
L 972.189474 124.524233 
L 972.432188 126.973477 
L 972.917616 118.931793 
L 973.160331 121.299395 
L 973.403045 116.278445 
L 973.888473 119.380821 
L 974.131187 119.952311 
L 974.373902 112.971965 
L 974.616616 116.278445 
L 974.85933 113.135248 
L 975.102044 113.665918 
L 975.344759 114.89054 
L 975.830187 117.952095 
L 976.072901 119.013434 
L 976.315615 122.891404 
L 977.043758 128.034816 
L 977.286472 129.096156 
L 977.771901 133.953823 
L 978.014615 134.484492 
L 978.257329 135.872397 
L 978.500043 135.46419 
L 978.742758 135.872397 
L 978.985472 139.709546 
L 979.228186 138.444104 
L 979.4709 139.546263 
L 980.199043 134.606955 
L 980.441757 133.668078 
L 981.1699 127.871533 
L 981.898043 125.46311 
L 982.140757 121.870886 
L 982.626185 122.279093 
L 982.8689 121.340216 
L 983.111614 121.911706 
L 983.354328 119.952311 
L 983.597042 119.87067 
L 983.839756 115.9927 
L 984.082471 117.788812 
L 984.567899 113.992484 
L 984.810613 117.788812 
L 985.053328 118.727689 
L 985.296042 115.013002 
L 985.538756 113.135248 
L 986.024184 106.236544 
L 986.266899 106.359006 
L 986.509613 102.440216 
L 986.752327 103.21581 
L 986.995041 103.134168 
L 987.237756 107.257063 
L 987.48047 100.44 
L 987.723184 100.603283 
L 987.965898 102.195292 
L 988.451327 109.543024 
L 988.694041 107.1346 
L 988.936755 109.093996 
L 989.422184 115.543672 
L 989.664898 114.972181 
L 989.907612 116.972397 
L 990.150326 117.339784 
L 990.39304 122.809762 
L 990.635755 123.299611 
L 991.121183 125.585572 
L 991.363897 124.605875 
L 991.606612 127.66743 
L 991.849326 127.177581 
L 992.09204 126.320346 
L 992.334754 123.381253 
L 992.577468 123.25879 
L 992.820183 124.197667 
L 993.305611 120.972829 
L 993.548325 113.747559 
L 993.79104 113.584276 
L 994.033754 117.421425 
L 994.519182 108.073477 
L 995.004611 111.379957 
L 995.247325 106.930497 
L 995.490039 105.787516 
L 995.975468 109.298099 
L 996.218182 102.521857 
L 996.218182 102.521857 
" clip-path="url(#pf41b6739a5)" style="fill: none; stroke: #000000; stroke-width: 1.5; stroke-linecap: square"/>
   </g>
   <g id="patch_3">
    <path d="M 144 576.72 
L 144 77.76 
" style="fill: none; stroke: #000000; stroke-width: 0.8; stroke-linejoin: miter; stroke-linecap: square"/>
   </g>
   <g id="patch_4">
    <path d="M 1036.8 576.72 
L 1036.8 77.76 
" style="fill: none; stroke: #000000; stroke-width: 0.8; stroke-linejoin: miter; stroke-linecap: square"/>
   </g>
   <g id="patch_5">
    <path d="M 144 576.72 
L 1036.8 576.72 
" style="fill: none; stroke: #000000; stroke-width: 0.8; stroke-linejoin: miter; stroke-linecap: square"/>
   </g>
   <g id="patch_6">
    <path d="M 144 77.76 
L 1036.8 77.76 
" style="fill: none; stroke: #000000; stroke-width: 0.8; stroke-linejoin: miter; stroke-linecap: square"/>
   </g>
   <g id="text_13">
    <g id="patch_7">
     <path d="M 786.7295 569.1408 
L 1030.272 569.1408 
L 1030.272 556.5983 
L 786.7295 556.5983 
z
" style="fill: #ffffff"/>
    </g>
    <!-- Data: Scripps CO2 Program   github:lwieske/climate-keeling -->
    <g transform="translate(789.1295 565.07705) scale(0.08 -0.08)">
     <defs>
      <path id="DejaVuSans-44" d="M 1259 4147 
L 1259 519 
L 2022 519 
Q 2988 519 3436 956 
Q 3884 1394 3884 2338 
Q 3884 3275 3436 3711 
Q 2988 4147 2022 4147 
L 1259 4147 
z
M 628 4666 
L 1925 4666 
Q 3281 4666 3915 4102 
Q 4550 3538 4550 2338 
Q 4550 1131 3912 565 
Q 3275 0 1925 0 
L 628 0 
L 628 4666 
z
" transform="scale(0.015625)"/>
      <path id="DejaVuSans-74" d="M 1172 4494 
L 1172 3500 
L 2356 3500 
L 2356 3053 
L 1172 3053 
L 1172 1153 
Q 1172 725 1289 603 
Q 1406 481 1766 481 
L 2356 481 
L 2356 0 
L 1766 0 
Q 1100 0 847 248 
Q 594 497 594 1153 
L 594 3053 
L 172 3053 
L 172 3500 
L 594 3500 
L 594 4494 
L 1172 4494 
z
" transform="scale(0.015625)"/>
      <path id="DejaVuSans-3a" d="M 750 794 
L 1409 794 
L 1409 0 
L 750 0 
L 750 794 
z
M 750 3309 
L 1409 3309 
L 1409 2516 
L 750 2516 
L 750 3309 
z
" transform="scale(0.015625)"/>
      <path id="DejaVuSans-53" d="M 3425 4513 
L 3425 3897 
Q 3066 4069 2747 4153 
Q 2428 4238 2131 4238 
Q 1616 4238 1336 4038 
Q 1056 3838 1056 3469 
Q 1056 3159 1242 3001 
Q 1428 2844 1947 2747 
L 2328 2669 
Q 3034 2534 3370 2195 
Q 3706 1856 3706 1288 
Q 3706 609 3251 259 
Q 2797 -91 1919 -91 
Q 1588 -91 1214 -16 
Q 841 59 441 206 
L 441 856 
Q 825 641 1194 531 
Q 1563 422 1919 422 
Q 2459 422 2753 634 
Q 3047 847 3047 1241 
Q 3047 1584 2836 1778 
Q 2625 1972 2144 2069 
L 1759 2144 
Q 1053 2284 737 2584 
Q 422 2884 422 3419 
Q 422 4038 858 4394 
Q 1294 4750 2059 4750 
Q 2388 4750 2728 4690 
Q 3069 4631 3425 4513 
z
" transform="scale(0.015625)"/>
      <path id="DejaVuSans-63" d="M 3122 3366 
L 3122 2828 
Q 2878 2963 2633 3030 
Q 2388 3097 2138 3097 
Q 1578 3097 1268 2742 
Q 959 2388 959 1747 
Q 959 1106 1268 751 
Q 1578 397 2138 397 
Q 2388 397 2633 464 
Q 2878 531 3122 666 
L 3122 134 
Q 2881 22 2623 -34 
Q 2366 -91 2075 -91 
Q 1284 -91 818 406 
Q 353 903 353 1747 
Q 353 2603 823 3093 
Q 1294 3584 2113 3584 
Q 2378 3584 2631 3529 
Q 2884 3475 3122 3366 
z
" transform="scale(0.015625)"/>
      <path id="DejaVuSans-69" d="M 603 3500 
L 1178 3500 
L 1178 0 
L 603 0 
L 603 3500 
z
M 603 4863 
L 1178 4863 
L 1178 4134 
L 603 4134 
L 603 4863 
z
" transform="scale(0.015625)"/>
      <path id="DejaVuSans-73" d="M 2834 3397 
L 2834 2853 
Q 2591 2978 2328 3040 
Q 2066 3103 1784 3103 
Q 1356 3103 1142 2972 
Q 928 2841 928 2578 
Q 928 2378 1081 2264 
Q 1234 2150 1697 2047 
L 1894 2003 
Q 2506 1872 2764 1633 
Q 3022 1394 3022 966 
Q 3022 478 2636 193 
Q 2250 -91 1575 -91 
Q 1294 -91 989 -36 
Q 684 19 347 128 
L 347 722 
Q 666 556 975 473 
Q 1284 391 1588 391 
Q 1994 391 2212 530 
Q 2431 669 2431 922 
Q 2431 1156 2273 1281 
Q 2116 1406 1581 1522 
L 1381 1569 
Q 847 1681 609 1914 
Q 372 2147 372 2553 
Q 372 3047 722 3315 
Q 1072 3584 1716 3584 
Q 2034 3584 2315 3537 
Q 2597 3491 2834 3397 
z
" transform="scale(0.015625)"/>
      <path id="DejaVuSans-50" d="M 1259 4147 
L 1259 2394 
L 2053 2394 
Q 2494 2394 2734 2622 
Q 2975 2850 2975 3272 
Q 2975 3691 2734 3919 
Q 2494 4147 2053 4147 
L 1259 4147 
z
M 628 4666 
L 2053 4666 
Q 2838 4666 3239 4311 
Q 3641 3956 3641 3272 
Q 3641 2581 3239 2228 
Q 2838 1875 2053 1875 
L 1259 1875 
L 1259 0 
L 628 0 
L 628 4666 
z
" transform="scale(0.015625)"/>
      <path id="DejaVuSans-6f" d="M 1959 3097 
Q 1497 3097 1228 2736 
Q 959 2375 959 1747 
Q 959 1119 1226 758 
Q 1494 397 1959 397 
Q 2419 397 2687 759 
Q 2956 1122 2956 1747 
Q 2956 2369 2687 2733 
Q 2419 3097 1959 3097 
z
M 1959 3584 
Q 2709 3584 3137 3096 
Q 3566 2609 3566 1747 
Q 3566 888 3137 398 
Q 2709 -91 1959 -91 
Q 1206 -91 779 398 
Q 353 888 353 1747 
Q 353 2609 779 3096 
Q 1206 3584 1959 3584 
z
" transform="scale(0.015625)"/>
      <path id="DejaVuSans-67" d="M 2906 1791 
Q 2906 2416 2648 2759 
Q 2391 3103 1925 3103 
Q 1463 3103 1205 2759 
Q 947 2416 947 1791 
Q 947 1169 1205 825 
Q 1463 481 1925 481 
Q 2391 481 2648 825 
Q 2906 1169 2906 1791 
z
M 3481 434 
Q 3481 -459 3084 -895 
Q 2688 -1331 1869 -1331 
Q 1566 -1331 1297 -1286 
Q 1028 -1241 775 -1147 
L 775 -588 
Q 1028 -725 1275 -790 
Q 1522 -856 1778 -856 
Q 2344 -856 2625 -561 
Q 2906 -266 2906 331 
L 2906 616 
Q 2728 306 2450 153 
Q 2172 0 1784 0 
Q 1141 0 747 490 
Q 353 981 353 1791 
Q 353 2603 747 3093 
Q 1141 3584 1784 3584 
Q 2172 3584 2450 3431 
Q 2728 3278 2906 2969 
L 2906 3500 
L 3481 3500 
L 3481 434 
z
" transform="scale(0.015625)"/>
      <path id="DejaVuSans-68" d="M 3513 2113 
L 3513 0 
L 2938 0 
L 2938 2094 
Q 2938 2591 2744 2837 
Q 2550 3084 2163 3084 
Q 1697 3084 1428 2787 
Q 1159 2491 1159 1978 
L 1159 0 
L 581 0 
L 581 4863 
L 1159 4863 
L 1159 2956 
Q 1366 3272 1645 3428 
Q 1925 3584 2291 3584 
Q 2894 3584 3203 3211 
Q 3513 2838 3513 2113 
z
" transform="scale(0.015625)"/>
      <path id="DejaVuSans-75" d="M 544 1381 
L 544 3500 
L 1119 3500 
L 1119 1403 
Q 1119 906 1312 657 
Q 1506 409 1894 409 
Q 2359 409 2629 706 
Q 2900 1003 2900 1516 
L 2900 3500 
L 3475 3500 
L 3475 0 
L 2900 0 
L 2900 538 
Q 2691 219 2414 64 
Q 2138 -91 1772 -91 
Q 1169 -91 856 284 
Q 544 659 544 1381 
z
M 1991 3584 
L 1991 3584 
z
" transform="scale(0.015625)"/>
      <path id="DejaVuSans-62" d="M 3116 1747 
Q 3116 2381 2855 2742 
Q 2594 3103 2138 3103 
Q 1681 3103 1420 2742 
Q 1159 2381 1159 1747 
Q 1159 1113 1420 752 
Q 1681 391 2138 391 
Q 2594 391 2855 752 
Q 3116 1113 3116 1747 
z
M 1159 2969 
Q 1341 3281 1617 3432 
Q 1894 3584 2278 3584 
Q 2916 3584 3314 3078 
Q 3713 2572 3713 1747 
Q 3713 922 3314 415 
Q 2916 -91 2278 -91 
Q 1894 -91 1617 61 
Q 1341 213 1159 525 
L 1159 0 
L 581 0 
L 581 4863 
L 1159 4863 
L 1159 2969 
z
" transform="scale(0.015625)"/>
      <path id="DejaVuSans-6c" d="M 603 4863 
L 1178 4863 
L 1178 0 
L 603 0 
L 603 4863 
z
" transform="scale(0.015625)"/>
      <path id="DejaVuSans-77" d="M 269 3500 
L 844 3500 
L 1563 769 
L 2278 3500 
L 2956 3500 
L 3675 769 
L 4391 3500 
L 4966 3500 
L 4050 0 
L 3372 0 
L 2619 2869 
L 1863 0 
L 1184 0 
L 269 3500 
z
" transform="scale(0.015625)"/>
      <path id="DejaVuSans-6b" d="M 581 4863 
L 1159 4863 
L 1159 1991 
L 2875 3500 
L 3609 3500 
L 1753 1863 
L 3688 0 
L 2938 0 
L 1159 1709 
L 1159 0 
L 581 0 
L 581 4863 
z
" transform="scale(0.015625)"/>
      <path id="DejaVuSans-2f" d="M 1625 4666 
L 2156 4666 
L 531 -594 
L 0 -594 
L 1625 4666 
z
" transform="scale(0.015625)"/>
      <path id="DejaVuSans-2d" d="M 313 2009 
L 1997 2009 
L 1997 1497 
L 313 1497 
L 313 2009 
z
" transform="scale(0.015625)"/>
      <path id="DejaVuSans-6e" d="M 3513 2113 
L 3513 0 
L 2938 0 
L 2938 2094 
Q 2938 2591 2744 2837 
Q 2550 3084 2163 3084 
Q 1697 3084 1428 2787 
Q 1159 2491 1159 1978 
L 1159 0 
L 581 0 
L 581 3500 
L 1159 3500 
L 1159 2956 
Q 1366 3272 1645 3428 
Q 1925 3584 2291 3584 
Q 2894 3584 3203 3211 
Q 3513 2838 3513 2113 
z
" transform="scale(0.015625)"/>
     </defs>
     <use xlink:href="#DejaVuSans-44"/>
     <use xlink:href="#DejaVuSans-61" x="77.001953"/>
     <use xlink:href="#DejaVuSans-74" x="138.28125"/>
     <use xlink:href="#DejaVuSans-61" x="177.490234"/>
     <use xlink:href="#DejaVuSans-3a" x="238.769531"/>
     <use xlink:href="#DejaVuSans-20" x="272.460938"/>
     <use xlink:href="#DejaVuSans-53" x="304.248047"/>
     <use xlink:href="#DejaVuSans-63" x="367.724609"/>
     <use xlink:href="#DejaVuSans-72" x="422.705078"/>
     <use xlink:href="#DejaVuSans-69" x="463.818359"/>
     <use xlink:href="#DejaVuSans-70" x="491.601562"/>
     <use xlink:href="#DejaVuSans-70" x="555.078125"/>
     <use xlink:href="#DejaVuSans-73" x="618.554688"/>
     <use xlink:href="#DejaVuSans-20" x="670.654297"/>
     <use xlink:href="#DejaVuSans-43" x="702.441406"/>
     <use xlink:href="#DejaVuSans-4f" x="772.265625"/>
     <use xlink:href="#DejaVuSans-32" x="850.976562"/>
     <use xlink:href="#DejaVuSans-20" x="914.599609"/>
     <use xlink:href="#DejaVuSans-50" x="946.386719"/>
     <use xlink:href="#DejaVuSans-72" x="1004.939453"/>
     <use xlink:href="#DejaVuSans-6f" x="1043.802734"/>
     <use xlink:href="#DejaVuSans-67" x="1104.984375"/>
     <use xlink:href="#DejaVuSans-72" x="1168.460938"/>
     <use xlink:href="#DejaVuSans-61" x="1209.574219"/>
     <use xlink:href="#DejaVuSans-6d" x="1270.853516"/>
     <use xlink:href="#DejaVuSans-20" x="1368.265625"/>
     <use xlink:href="#DejaVuSans-20" x="1400.052734"/>
     <use xlink:href="#DejaVuSans-20" x="1431.839844"/>
     <use xlink:href="#DejaVuSans-67" x="1463.626953"/>
     <use xlink:href="#DejaVuSans-69" x="1527.103516"/>
     <use xlink:href="#DejaVuSans-74" x="1554.886719"/>
     <use xlink:href="#DejaVuSans-68" x="1594.095703"/>
     <use xlink:href="#DejaVuSans-75" x="1657.474609"/>
     <use xlink:href="#DejaVuSans-62" x="1720.853516"/>
     <use xlink:href="#DejaVuSans-3a" x="1784.330078"/>
     <use xlink:href="#DejaVuSans-6c" x="1818.021484"/>
     <use xlink:href="#DejaVuSans-77" x="1845.804688"/>
     <use xlink:href="#DejaVuSans-69" x="1927.591797"/>
     <use xlink:href="#DejaVuSans-65" x="1955.375"/>
     <use xlink:href="#DejaVuSans-73" x="2016.898438"/>
     <use xlink:href="#DejaVuSans-6b" x="2068.998047"/>
     <use xlink:href="#DejaVuSans-65" x="2123.283203"/>
     <use xlink:href="#DejaVuSans-2f" x="2184.806641"/>
     <use xlink:href="#DejaVuSans-63" x="2218.498047"/>
     <use xlink:href="#DejaVuSans-6c" x="2273.478516"/>
     <use xlink:href="#DejaVuSans-69" x="2301.261719"/>
     <use xlink:href="#DejaVuSans-6d" x="2329.044922"/>
     <use xlink:href="#DejaVuSans-61" x="2426.457031"/>
     <use xlink:href="#DejaVuSans-74" x="2487.736328"/>
     <use xlink:href="#DejaVuSans-65" x="2526.945312"/>
     <use xlink:href="#DejaVuSans-2d" x="2588.46875"/>
     <use xlink:href="#DejaVuSans-6b" x="2624.552734"/>
     <use xlink:href="#DejaVuSans-65" x="2678.837891"/>
     <use xlink:href="#DejaVuSans-65" x="2740.361328"/>
     <use xlink:href="#DejaVuSans-6c" x="2801.884766"/>
     <use xlink:href="#DejaVuSans-69" x="2829.667969"/>
     <use xlink:href="#DejaVuSans-6e" x="2857.451172"/>
     <use xlink:href="#DejaVuSans-67" x="2920.830078"/>
    </g>
   </g>
   <g id="text_14">
    <!-- Mauna Loa Observatory (Hawaii) In-Situ CO2 (ppm) -->
    <g transform="translate(281.840625 71.76) scale(0.24 -0.24)">
     <defs>
      <path id="DejaVuSans-4d" d="M 628 4666 
L 1569 4666 
L 2759 1491 
L 3956 4666 
L 4897 4666 
L 4897 0 
L 4281 0 
L 4281 4097 
L 3078 897 
L 2444 897 
L 1241 4097 
L 1241 0 
L 628 0 
L 628 4666 
z
" transform="scale(0.015625)"/>
      <path id="DejaVuSans-4c" d="M 628 4666 
L 1259 4666 
L 1259 531 
L 3531 531 
L 3531 0 
L 628 0 
L 628 4666 
z
" transform="scale(0.015625)"/>
      <path id="DejaVuSans-76" d="M 191 3500 
L 800 3500 
L 1894 563 
L 2988 3500 
L 3597 3500 
L 2284 0 
L 1503 0 
L 191 3500 
z
" transform="scale(0.015625)"/>
      <path id="DejaVuSans-79" d="M 2059 -325 
Q 1816 -950 1584 -1140 
Q 1353 -1331 966 -1331 
L 506 -1331 
L 506 -850 
L 844 -850 
Q 1081 -850 1212 -737 
Q 1344 -625 1503 -206 
L 1606 56 
L 191 3500 
L 800 3500 
L 1894 763 
L 2988 3500 
L 3597 3500 
L 2059 -325 
z
" transform="scale(0.015625)"/>
      <path id="DejaVuSans-48" d="M 628 4666 
L 1259 4666 
L 1259 2753 
L 3553 2753 
L 3553 4666 
L 4184 4666 
L 4184 0 
L 3553 0 
L 3553 2222 
L 1259 2222 
L 1259 0 
L 628 0 
L 628 4666 
z
" transform="scale(0.015625)"/>
      <path id="DejaVuSans-49" d="M 628 4666 
L 1259 4666 
L 1259 0 
L 628 0 
L 628 4666 
z
" transform="scale(0.015625)"/>
     </defs>
     <use xlink:href="#DejaVuSans-4d"/>
     <use xlink:href="#DejaVuSans-61" x="86.279297"/>
     <use xlink:href="#DejaVuSans-75" x="147.558594"/>
     <use xlink:href="#DejaVuSans-6e" x="210.9375"/>
     <use xlink:href="#DejaVuSans-61" x="274.316406"/>
     <use xlink:href="#DejaVuSans-20" x="335.595703"/>
     <use xlink:href="#DejaVuSans-4c" x="367.382812"/>
     <use xlink:href="#DejaVuSans-6f" x="421.345703"/>
     <use xlink:href="#DejaVuSans-61" x="482.527344"/>
     <use xlink:href="#DejaVuSans-20" x="543.806641"/>
     <use xlink:href="#DejaVuSans-4f" x="575.59375"/>
     <use xlink:href="#DejaVuSans-62" x="654.304688"/>
     <use xlink:href="#DejaVuSans-73" x="717.78125"/>
     <use xlink:href="#DejaVuSans-65" x="769.880859"/>
     <use xlink:href="#DejaVuSans-72" x="831.404297"/>
     <use xlink:href="#DejaVuSans-76" x="872.517578"/>
     <use xlink:href="#DejaVuSans-61" x="931.697266"/>
     <use xlink:href="#DejaVuSans-74" x="992.976562"/>
     <use xlink:href="#DejaVuSans-6f" x="1032.185547"/>
     <use xlink:href="#DejaVuSans-72" x="1093.367188"/>
     <use xlink:href="#DejaVuSans-79" x="1134.480469"/>
     <use xlink:href="#DejaVuSans-20" x="1193.660156"/>
     <use xlink:href="#DejaVuSans-28" x="1225.447266"/>
     <use xlink:href="#DejaVuSans-48" x="1264.460938"/>
     <use xlink:href="#DejaVuSans-61" x="1339.65625"/>
     <use xlink:href="#DejaVuSans-77" x="1400.935547"/>
     <use xlink:href="#DejaVuSans-61" x="1482.722656"/>
     <use xlink:href="#DejaVuSans-69" x="1544.001953"/>
     <use xlink:href="#DejaVuSans-69" x="1571.785156"/>
     <use xlink:href="#DejaVuSans-29" x="1599.568359"/>
     <use xlink:href="#DejaVuSans-20" x="1638.582031"/>
     <use xlink:href="#DejaVuSans-49" x="1670.369141"/>
     <use xlink:href="#DejaVuSans-6e" x="1699.861328"/>
     <use xlink:href="#DejaVuSans-2d" x="1763.240234"/>
     <use xlink:href="#DejaVuSans-53" x="1799.324219"/>
     <use xlink:href="#DejaVuSans-69" x="1862.800781"/>
     <use xlink:href="#DejaVuSans-74" x="1890.583984"/>
     <use xlink:href="#DejaVuSans-75" x="1929.792969"/>
     <use xlink:href="#DejaVuSans-20" x="1993.171875"/>
     <use xlink:href="#DejaVuSans-43" x="2024.958984"/>
     <use xlink:href="#DejaVuSans-4f" x="2094.783203"/>
     <use xlink:href="#DejaVuSans-32" x="2173.494141"/>
     <use xlink:href="#DejaVuSans-20" x="2237.117188"/>
     <use xlink:href="#DejaVuSans-28" x="2268.904297"/>
     <use xlink:href="#DejaVuSans-70" x="2307.917969"/>
     <use xlink:href="#DejaVuSans-70" x="2371.394531"/>
     <use xlink:href="#DejaVuSans-6d" x="2434.871094"/>
     <use xlink:href="#DejaVuSans-29" x="2532.283203"/>
    </g>
   </g>
  </g>
 </g>
 <defs>
  <clipPath id="pf41b6739a5">
   <rect x="144" y="77.76" width="892.8" height="498.96"/>
  </clipPath>
 </defs>
</svg>
